<svg width="9" height="8" viewBox="0 0 9 8" fill="none" xmlns="http://www.w3.org/2000/svg">
<path d="M7.5 0.833333H6.17917L5.41667 0H2.91667L2.15417 0.833333H0.833333C0.375 0.833333 0 1.20833 0 1.66667V6.66667C0 7.125 0.375 7.5 0.833333 7.5H7.5C7.95833 7.5 8.33333 7.125 8.33333 6.66667V1.66667C8.33333 1.20833 7.95833 0.833333 7.5 0.833333ZM7.5 6.66667H0.833333V1.66667H2.52083L3.28333 0.833333H5.05L5.8125 1.66667H7.5V6.66667ZM4.16667 2.08333C3.01667 2.08333 2.08333 3.01667 2.08333 4.16667C2.08333 5.31667 3.01667 6.25 4.16667 6.25C5.31667 6.25 6.25 5.31667 6.25 4.16667C6.25 3.01667 5.31667 2.08333 4.16667 2.08333ZM4.16667 5.41667C3.47917 5.41667 2.91667 4.85417 2.91667 4.16667C2.91667 3.47917 3.47917 2.91667 4.16667 2.91667C4.85417 2.91667 5.41667 3.47917 5.41667 4.16667C5.41667 4.85417 4.85417 5.41667 4.16667 5.41667Z" fill="#ECECEC"/>
</svg>
