<svg width="18" height="18" viewBox="0 0 18 18" fill="none" xmlns="http://www.w3.org/2000/svg">
<path d="M13.7925 10.92C12.5325 10.275 10.8975 9.75 9 9.75C7.1025 9.75 5.4675 10.275 4.2075 10.92C3.4575 11.3025 3 12.075 3 12.915V15H15V12.915C15 12.075 14.5425 11.3025 13.7925 10.92ZM13.5 13.5H4.5V12.915C4.5 12.63 4.65 12.375 4.89 12.255C5.7825 11.7975 7.2225 11.25 9 11.25C10.7775 11.25 12.2175 11.7975 13.11 12.255C13.35 12.375 13.5 12.63 13.5 12.915V13.5Z" fill="#8D8D8D"/>
<path d="M7.33489 9H10.6649C11.5724 9 12.2699 8.205 12.1499 7.305L11.9099 5.4675C11.6774 4.0425 10.4399 3 8.99989 3C7.55989 3 6.32239 4.0425 6.08989 5.4675L5.84989 7.305C5.72989 8.205 6.42739 9 7.33489 9ZM7.57489 5.6925C7.69489 5.0025 8.29489 4.5 8.99989 4.5C9.70489 4.5 10.3049 5.0025 10.4249 5.6925L10.6649 7.5H7.33489L7.57489 5.6925Z" fill="#8D8D8D"/>
</svg>
