<svg width="30" height="36" viewBox="0 0 30 36" fill="none" xmlns="http://www.w3.org/2000/svg">
<path fill-rule="evenodd" clip-rule="evenodd" d="M19.7531 7.81468C19.7533 8.57128 19.5703 9.31667 19.2198 9.98718C18.8693 10.6577 18.3617 11.2334 17.7404 11.6651C17.119 12.0969 16.4024 12.3718 15.6518 12.4664C14.9011 12.561 14.1387 12.4725 13.4297 12.2084L16.2266 15.5412C17.5996 15.3348 18.8928 14.7662 19.9731 13.894C21.0534 13.0219 21.8818 11.8776 22.3731 10.579C22.8644 9.28037 23.0008 7.8743 22.7683 6.50547C22.5357 5.13664 21.9427 3.85449 21.0502 2.79094C20.1576 1.72738 18.9979 0.920846 17.6901 0.45432C16.3824 -0.0122072 14.974 -0.121875 13.6099 0.136599C12.2457 0.395074 10.975 1.01236 9.92863 1.92493C8.88222 2.8375 8.09786 4.0124 7.65626 5.32874L10.4547 8.66468C10.3375 8.02429 10.355 7.36652 10.5061 6.73327C10.6571 6.10002 10.9384 5.50518 11.3321 4.98665C11.7257 4.46812 12.2231 4.03727 12.7924 3.72156C13.3617 3.40584 13.9906 3.21218 14.6389 3.15292C15.2872 3.09365 15.9408 3.17008 16.5579 3.37734C17.1751 3.58459 17.7423 3.91813 18.2234 4.35669C18.7045 4.79526 19.089 5.32923 19.3524 5.9246C19.6158 6.51996 19.7523 7.16366 19.7531 7.81468ZM10.4203 18.9584L0.404695 7.11468C0.263899 6.95931 0.155812 6.7772 0.0868727 6.57919C0.0179339 6.38117 -0.0104465 6.17131 0.00342174 5.9621C0.01729 5.75288 0.0731233 5.5486 0.167596 5.36142C0.262069 5.17424 0.393248 5.00799 0.55332 4.87256C0.713392 4.73714 0.899083 4.63532 1.09933 4.57317C1.29958 4.51102 1.51029 4.4898 1.71891 4.51079C1.92752 4.53178 2.12978 4.59454 2.31364 4.69534C2.49749 4.79613 2.65918 4.9329 2.78907 5.09749L26.5281 33.1647C26.7958 33.4811 26.9269 33.8909 26.8925 34.3039C26.858 34.7169 26.6609 35.0993 26.3445 35.367C26.0281 35.6347 25.6184 35.7658 25.2053 35.7313C24.7923 35.6969 24.4099 35.4998 24.1422 35.1834L21.7391 32.3412C20.7257 32.656 19.6705 32.8156 18.6094 32.8147H11.5219C8.73214 32.8147 6.05665 31.7065 4.084 29.7338C2.11135 27.7612 1.00313 25.0857 1.00313 22.2959C1.00313 21.6834 1.32501 21.1209 1.88751 20.8787C3.18438 20.3225 5.94376 19.3741 10.4203 18.9584ZM19.4563 29.6412C19.1781 29.6725 18.8953 29.6897 18.6094 29.6897H11.5219C9.74199 29.6896 8.02185 29.0475 6.67718 27.8813C5.33251 26.7152 4.45353 25.1032 4.20157 23.3412C5.80001 22.8037 8.64219 22.1022 12.9266 21.9209L19.4563 29.6412ZM19.0453 18.9022L21.9766 22.3944C23.3175 22.6036 24.6395 22.9202 25.9297 23.3412C25.7973 24.2805 25.4843 25.1852 25.0078 26.0053L27.1016 28.5037C28.4216 26.7034 29.1317 24.5283 29.1281 22.2959C29.1281 21.6834 28.8063 21.1209 28.2438 20.8787C26.8844 20.2944 23.9156 19.2819 19.0453 18.9022Z" fill="white"/>
</svg>
