<svg width="18" height="18" viewBox="0 0 18 18" fill="none" xmlns="http://www.w3.org/2000/svg">
<path d="M0.75 16.5H17.25" stroke="white" stroke-miterlimit="10" stroke-linecap="round" stroke-linejoin="round"/>
<path d="M14.8359 16.5071V13.1621" stroke="white" stroke-miterlimit="10" stroke-linecap="round" stroke-linejoin="round"/>
<path d="M14.8492 8.16797C13.9342 8.16797 13.1992 8.90298 13.1992 9.81798V11.5204C13.1992 12.4354 13.9342 13.1705 14.8492 13.1705C15.7642 13.1705 16.4992 12.4354 16.4992 11.5204V9.81798C16.4992 8.90298 15.7642 8.16797 14.8492 8.16797Z" stroke="white" stroke-miterlimit="10" stroke-linecap="round" stroke-linejoin="round"/>
<path d="M1.57422 16.5003V4.52283C1.57422 3.01533 2.32426 2.25781 3.81676 2.25781H8.48924C9.98174 2.25781 10.7242 3.01533 10.7242 4.52283V16.5003" stroke="white" stroke-miterlimit="10" stroke-linecap="round" stroke-linejoin="round"/>
<path d="M4.34961 6.1875H8.06212" stroke="white" stroke-miterlimit="10" stroke-linecap="round" stroke-linejoin="round"/>
<path d="M4.34961 9H8.06212" stroke="white" stroke-miterlimit="10" stroke-linecap="round" stroke-linejoin="round"/>
<path d="M6.1875 16.5V13.6875" stroke="white" stroke-miterlimit="10" stroke-linecap="round" stroke-linejoin="round"/>
</svg>
