<svg width="20" height="20" viewBox="0 0 20 20" fill="none" xmlns="http://www.w3.org/2000/svg">
<path d="M9.99951 0C4.47706 0 0 4.47706 0 9.99951C0 12.2072 0.716121 14.2479 1.92788 15.9024L0.652129 19.6738L4.62599 18.433C6.17807 19.4237 8.0216 19.9984 9.99951 19.9984C15.522 19.9984 19.999 15.5214 19.999 9.99893C19.999 4.47648 15.522 0 9.99951 0Z" fill="#4CAF50"/>
<path d="M9.16737 11.6667C8.56004 11.2048 7.11674 9.48116 7.1563 9.13269C7.19586 8.78423 8.22263 8.04775 8.21274 7.63588C8.20285 7.22401 7.28719 4.5707 6.4553 4.56255C5.62342 4.55441 4.09519 5.50264 4.20048 7.38224C4.30578 9.26184 5.86891 11.7965 8.23426 13.5917C10.5996 15.387 12.7643 16.0909 14.581 15.366C16.189 14.7244 16.2128 13.0693 15.9906 12.7843C15.7689 12.4992 13.5461 11.3957 13.1395 11.4748C12.7328 11.5539 12.3076 12.8395 11.6665 12.9268C11.0254 13.0129 9.77471 12.1286 9.16737 11.6667Z" fill="white"/>
</svg>
