<svg width="14" height="14" viewBox="0 0 14 14" fill="none" xmlns="http://www.w3.org/2000/svg">
<path d="M13.125 6.5625C13.125 7.1225 12.437 7.58406 12.2992 8.10031C12.157 8.63406 12.5169 9.37781 12.2467 9.84484C11.9722 10.3195 11.1464 10.3764 10.7614 10.7614C10.3764 11.1464 10.3195 11.9722 9.84484 12.2467C9.37781 12.5169 8.63406 12.157 8.10031 12.2992C7.58406 12.437 7.1225 13.125 6.5625 13.125C6.0025 13.125 5.54094 12.437 5.02469 12.2992C4.49094 12.157 3.74719 12.5169 3.28016 12.2467C2.80547 11.9722 2.74859 11.1464 2.36359 10.7614C1.97859 10.3764 1.15281 10.3195 0.878281 9.84484C0.608125 9.37781 0.967969 8.63406 0.825781 8.10031C0.687969 7.58406 0 7.1225 0 6.5625C0 6.0025 0.687969 5.54094 0.825781 5.02469C0.967969 4.49094 0.608125 3.74719 0.878281 3.28016C1.15281 2.80547 1.97859 2.74859 2.36359 2.36359C2.74859 1.97859 2.80547 1.15281 3.28016 0.878281C3.74719 0.608125 4.49094 0.967969 5.02469 0.825781C5.54094 0.687969 6.0025 0 6.5625 0C7.1225 0 7.58406 0.687969 8.10031 0.825781C8.63406 0.967969 9.37781 0.608125 9.84484 0.878281C10.3195 1.15281 10.3764 1.97859 10.7614 2.36359C11.1464 2.74859 11.9722 2.80547 12.2467 3.28016C12.5169 3.74719 12.157 4.49094 12.2992 5.02469C12.437 5.54094 13.125 6.0025 13.125 6.5625Z" fill="#2568EF"/>
<path d="M8.45874 4.60729L5.96061 7.10542L4.66561 5.81151C4.53056 5.67653 4.34742 5.6007 4.15647 5.6007C3.96553 5.6007 3.78239 5.67653 3.64733 5.81151C3.51235 5.94657 3.43652 6.1297 3.43652 6.32065C3.43652 6.5116 3.51235 6.69473 3.64733 6.82979L5.46405 8.64651C5.59551 8.77782 5.77372 8.85158 5.95952 8.85158C6.14533 8.85158 6.32353 8.77782 6.45499 8.64651L9.47593 5.62557C9.61091 5.49051 9.68674 5.30738 9.68674 5.11643C9.68674 4.92548 9.61091 4.74235 9.47593 4.60729C9.40916 4.54046 9.32988 4.48745 9.24261 4.45127C9.15534 4.4151 9.0618 4.39648 8.96733 4.39648C8.87287 4.39648 8.77933 4.4151 8.69206 4.45127C8.60479 4.48745 8.52551 4.54046 8.45874 4.60729Z" fill="#FFFCEE"/>
</svg>
