<svg width="14" height="14" viewBox="0 0 14 14" fill="none" xmlns="http://www.w3.org/2000/svg">
<path d="M10.9023 6.72596C10.5698 6.63846 10.179 6.5918 9.71232 6.5918C9.06482 6.5918 8.82565 6.7493 8.49315 7.00013C8.47565 7.0118 8.45815 7.0293 8.44065 7.0468L7.88648 7.63596C7.41982 8.12596 6.57982 8.1318 6.11315 7.63013L5.55898 7.0468C5.54148 7.0293 5.52398 7.0118 5.50648 7.00013C5.17398 6.7493 4.93482 6.5918 4.28732 6.5918C3.82065 6.5918 3.42982 6.63846 3.09732 6.72596C1.70898 7.0993 1.70898 8.2018 1.70898 9.17013V9.71263C1.70898 11.1768 1.70898 12.8335 4.82982 12.8335H9.16982C11.2407 12.8335 12.2907 11.7835 12.2907 9.71263V9.17013C12.2907 8.2018 12.2907 7.0993 10.9023 6.72596ZM8.35898 10.7335H5.64065C5.41898 10.7335 5.23815 10.5526 5.23815 10.3251C5.23815 10.0976 5.41898 9.9168 5.64065 9.9168H8.35898C8.58065 9.9168 8.76148 10.0976 8.76148 10.3251C8.76148 10.5526 8.58065 10.7335 8.35898 10.7335Z" fill="#292D32"/>
<path d="M7.39104 1.55783C7.39104 1.34199 7.21604 1.16699 7.00021 1.16699C6.78438 1.16699 6.60938 1.34199 6.60938 1.55783V2.33366H7.39688V1.55783H7.39104Z" fill="#292D32"/>
<path d="M11.2056 4.91134V5.90301C11.1823 5.89134 11.1531 5.88551 11.1298 5.87967H11.1239C10.7098 5.76884 10.2489 5.71634 9.71228 5.71634C8.81394 5.71634 8.38811 5.97884 8.00311 6.27051C7.92145 6.32884 7.86311 6.38717 7.80478 6.44551L7.25061 7.03467C7.19228 7.09301 7.09895 7.12801 6.99978 7.12801C6.95311 7.12801 6.83645 7.12217 6.74895 7.02884L6.17728 6.42801C6.11895 6.36384 6.04895 6.31134 6.03145 6.29967C5.61145 5.97884 5.18561 5.71634 4.28728 5.71634C3.75061 5.71634 3.28978 5.76884 2.86978 5.87967C2.84645 5.88551 2.81728 5.89134 2.79395 5.90301V4.91134C2.79395 3.70384 2.79395 2.33301 5.37228 2.33301H6.60895V4.34551L6.22978 3.96634C6.07228 3.80884 5.82728 3.80884 5.66978 3.96634C5.51811 4.11801 5.51811 4.36884 5.66978 4.52051L6.71978 5.57051C6.72561 5.57634 6.73145 5.57634 6.73145 5.58217C6.76645 5.61134 6.80728 5.64051 6.84811 5.65801C6.90061 5.67551 6.94728 5.68717 6.99978 5.68717C7.05228 5.68717 7.09895 5.67551 7.15145 5.65801C7.19811 5.64051 7.23894 5.61134 7.27978 5.57051L8.32978 4.52051C8.48144 4.36884 8.48144 4.11801 8.32978 3.96634C8.17228 3.80884 7.92728 3.80884 7.76978 3.96634L7.39061 4.34551V2.33301H8.62728C11.2056 2.33301 11.2056 3.70384 11.2056 4.91134Z" fill="#292D32"/>
</svg>
