<svg width="12" height="12" viewBox="0 0 12 12" fill="none" xmlns="http://www.w3.org/2000/svg">
<path d="M4.65208 10.3862H2.18277C1.15308 10.3862 0.318359 9.55145 0.318359 8.52176V2.18277C0.318359 1.15308 1.15308 0.318359 2.18277 0.318359H8.52176C9.55145 0.318359 10.3862 1.15308 10.3862 2.18277V4.72512M10.3862 8.6817L9.06782 7.36336M6.43115 11.3184C6.43115 10.4743 6.76646 9.66471 7.36336 9.06782L9.72701 6.70419C10.0911 6.34014 10.6813 6.34014 11.0453 6.70419C11.4094 7.06824 11.4094 7.65849 11.0453 8.02254L8.6817 10.3862C8.38616 10.6817 8.03529 10.9162 7.64914 11.0761C7.26299 11.2361 6.84912 11.3184 6.43115 11.3184Z" stroke="#262626" stroke-width="0.636385" stroke-miterlimit="10" stroke-linecap="round" stroke-linejoin="round"/>
<path d="M2.18359 5.91188L3.38884 4.70663C3.75289 4.34258 4.34314 4.34258 4.70719 4.70663L7.08473 7.08417" stroke="#262626" stroke-width="0.636385" stroke-miterlimit="10" stroke-linecap="round" stroke-linejoin="round"/>
<path d="M7.59041 4.048C8.10525 4.048 8.52261 3.63064 8.52261 3.1158C8.52261 2.60096 8.10525 2.18359 7.59041 2.18359C7.07557 2.18359 6.6582 2.60096 6.6582 3.1158C6.6582 3.63064 7.07557 4.048 7.59041 4.048Z" stroke="#262626" stroke-width="0.636385" stroke-miterlimit="10" stroke-linecap="round" stroke-linejoin="round"/>
</svg>
