<svg width="18" height="18" viewBox="0 0 18 18" fill="none" xmlns="http://www.w3.org/2000/svg">
<path d="M7.86663 1.67242L4.12414 3.07492C3.26164 3.39742 2.55664 4.41741 2.55664 5.33991V10.9124C2.55664 11.7974 3.14165 12.9599 3.85415 13.4924L7.07914 15.8999C8.13664 16.6949 9.87663 16.6949 10.9341 15.8999L14.1591 13.4924C14.8716 12.9599 15.4566 11.7974 15.4566 10.9124V5.33991C15.4566 4.41741 14.7516 3.39742 13.8891 3.07492L10.1466 1.67242C9.50914 1.43992 8.48913 1.43992 7.86663 1.67242Z" stroke="white" stroke-linecap="round" stroke-linejoin="round"/>
<path d="M8.99977 8.18982C8.96977 8.18982 8.93227 8.18982 8.90227 8.18982C8.19727 8.16732 7.63477 7.58231 7.63477 6.86981C7.63477 6.14231 8.22727 5.5498 8.95477 5.5498C9.68227 5.5498 10.2748 6.14231 10.2748 6.86981C10.2673 7.58981 9.70477 8.16732 8.99977 8.18982Z" stroke="white" stroke-linecap="round" stroke-linejoin="round"/>
<path d="M7.5068 10.2895C6.7868 10.7695 6.7868 11.557 7.5068 12.037C8.3243 12.5845 9.6668 12.5845 10.4843 12.037C11.2043 11.557 11.2043 10.7695 10.4843 10.2895C9.6743 9.74203 8.3318 9.74203 7.5068 10.2895Z" stroke="white" stroke-linecap="round" stroke-linejoin="round"/>
</svg>
