<?xml version="1.0" encoding="UTF-8"?>
<svg version="1.1" xmlns="http://www.w3.org/2000/svg" width="153" height="245">
<path d="M0 0 C17.16 0 34.32 0 52 0 C49.87952172 4.24095656 47.26769353 6.97021911 43.93359375 10.2265625 C43.33950211 10.81545258 42.74541046 11.40434265 42.13331604 12.01107788 C40.23940726 13.88720808 38.33893569 15.75650105 36.4375 17.625 C34.53338558 19.50150464 32.63074561 21.37944576 30.73097229 23.26034546 C29.54957451 24.42947724 28.36551399 25.59592558 27.17857361 26.75942993 C23.11800728 30.77033755 21.83471817 32.57822622 21.6875 38.25 C21.74721418 43.31907063 22.40056961 46.2111259 26 50 C30.38373454 52.9224897 33.77777599 53.559524 39 53 C45.07933436 50.70950777 48.94781886 46.4202676 53.390625 41.8671875 C54.17644958 41.0747464 54.96227417 40.2823053 55.77191162 39.46585083 C58.27183147 36.94258961 60.76133562 34.40935883 63.25 31.875 C65.75467573 29.33528377 68.26147629 26.79771606 70.77093506 24.26272583 C72.32998781 22.68666706 73.8859478 21.10754185 75.4385376 19.52511597 C76.13976746 18.8141275 76.84099731 18.10313904 77.56347656 17.37060547 C78.18047424 16.74233856 78.79747192 16.11407166 79.4331665 15.46676636 C82.2669143 12.81399824 84.96364809 12.46665762 88.81846619 12.54402161 C91.46678852 13.09756689 92.54547787 13.97001256 94.52954102 15.7956543 C95.22500031 16.43473724 95.92045959 17.07382019 96.63699341 17.73226929 C101.45180214 22.35294605 106.18884327 27.04603351 110.90234375 31.76953125 C112.03180112 32.89831373 113.16140679 34.02694784 114.29115295 35.15544128 C116.64177288 37.50459656 118.99059853 39.85552695 121.33813477 42.20776367 C124.34984833 45.22521344 127.36608298 48.23809799 130.38364315 51.24969959 C132.70937067 53.57182171 135.03272141 55.89631005 137.35534859 58.22153282 C138.46741884 59.33427036 139.58023298 60.44626497 140.69379997 61.55750465 C142.24222409 63.10339836 143.78742241 64.65244491 145.33178711 66.20239258 C146.65127602 67.52307487 146.65127602 67.52307487 147.99742126 68.87043762 C151.29874588 72.38109943 151.40762774 75.06118621 151.33984375 79.73828125 C151 82 151 82 148.9375 85 C145.42070506 87.39441358 143.24773336 88 139 88 C134.48466614 85.82006959 131.28902125 82.55021124 127.82421875 79.01953125 C127.25419632 78.44667892 126.68417389 77.8738266 126.09687805 77.28361511 C124.28897622 75.46457646 122.48817881 73.63868622 120.6875 71.8125 C119.45814588 70.5731077 118.22833292 69.33417035 116.99804688 68.09570312 C113.99336069 65.06904285 110.99502376 62.03622079 108 59 C107.01 59.495 107.01 59.495 106 60 C106.84296631 60.80107178 107.68593262 61.60214355 108.55444336 62.42749023 C111.69271587 65.42037023 114.80394905 68.44013891 117.90795898 71.46850586 C119.2520315 72.77248094 120.60321445 74.06916995 121.96166992 75.3581543 C123.9196502 77.21848686 125.85008316 79.10401569 127.77734375 80.99609375 C128.38464828 81.562108 128.99195282 82.12812225 129.61766052 82.71128845 C133.49392294 86.5833721 134.74269065 89.51797201 135.12208557 94.99061584 C134.93958297 97.9943928 133.92427855 99.73210028 132 102 C128.86571358 104.08952428 126.89940281 104.61213551 123.15039062 104.49487305 C114.70739569 102.55187228 106.56644742 90.60647961 100.7590332 84.66308594 C99.37890591 83.25284764 97.99228138 81.84897703 96.60546875 80.4453125 C95.79231201 79.61531738 94.97915527 78.78532227 94.14135742 77.93017578 C92.0643414 75.79906741 92.0643414 75.79906741 89 75 C94.4359413 81.45340598 100.30551913 87.3928934 106.3125 93.3125 C108.10256932 95.0770879 109.89043681 96.84391304 111.67578125 98.61328125 C112.45864502 99.38454346 113.24150879 100.15580566 114.0480957 100.95043945 C117.82835987 104.91983504 118.48915928 107.49147305 118.39453125 112.7734375 C117.76592115 116.32103903 115.77876696 117.88284422 113 120 C110.13391871 121.43304064 108.18699217 121.30644155 105 121 C100.33419782 118.26907413 96.69522094 114.96556821 92.9453125 111.140625 C92.39890106 110.59138367 91.85248962 110.04214233 91.28952026 109.47625732 C89.56321695 107.73885208 87.84403982 105.99458921 86.125 104.25 C84.94838261 103.0633399 83.77130361 101.87713732 82.59375 100.69140625 C79.72380355 97.79953212 76.86022237 94.90149084 74 92 C73.66252117 95.23917077 73.66252117 95.23917077 76.46264648 97.69213867 C77.59251053 98.77401757 78.72916882 99.84882789 79.87109375 100.91796875 C81.09757818 102.10162012 82.323471 103.28588476 83.54882812 104.47070312 C85.48852046 106.32999371 87.43307514 108.183332 89.38891602 110.02563477 C91.27384021 111.80731473 93.13580093 113.61063242 94.99609375 115.41796875 C95.58152451 115.95785934 96.16695526 116.49774994 96.77012634 117.05400085 C99.70644593 119.93484231 101.34260794 122.06996662 101.98852539 126.1965332 C102.00232021 130.76907667 100.93332986 132.56381359 98 136 C94.44415069 137.77792465 90.86259708 137.76760673 87 137 C82.80433639 134.34298383 79.74276285 131.11414428 77 127 C77.495 125.96875 77.99 124.9375 78.5 123.875 C80.36633712 119.95069293 80.01823748 117.13719243 78.84765625 113.015625 C77.49995639 109.8109562 76.06033252 108.62783645 73 107 C70.02609864 106.13677024 67.05384929 105.50564825 64 105 C63.90203125 104.40832031 63.8040625 103.81664062 63.703125 103.20703125 C62.74648024 98.15165852 61.75233265 94.75233265 58 91 C55.70370006 89.85185003 53.92301914 89.69230191 51.375 89.4375 C50.55773438 89.35371094 49.74046875 89.26992187 48.8984375 89.18359375 C48.27195313 89.12300781 47.64546875 89.06242187 47 89 C46.91363281 88.33613281 46.82726563 87.67226562 46.73828125 86.98828125 C46.0552483 82.69582644 45.42726491 79.62147623 42.9375 76 C39.11872446 73.39998261 35.52227039 72.66011354 31 72 C30.90203125 71.40832031 30.8040625 70.81664062 30.703125 70.20703125 C29.74648024 65.15165852 28.75233265 61.75233265 25 58 C21.2292383 56.11461915 17.09628882 56.35826808 13 57 C9.95077327 58.61677479 7.55135679 60.69691189 5 63 C3.35 64.32 1.7 65.64 0 67 C0 44.89 0 22.78 0 0 Z " fill="#1B4591" transform="translate(0,107)"/>
<path d="M0 0 C6.66484788 0.34219041 13.33719275 0.46628355 20.00837708 0.62869263 C30.05793246 0.89692742 40.05984243 1.4335895 50.11187744 1.92260742 C50.11187744 25.35260742 50.11187744 48.78260742 50.11187744 72.92260742 C46.65000616 69.46073614 43.19298505 65.99464164 39.74249268 62.52148438 C34.55845528 57.30487123 29.36941478 52.09326563 24.1774435 46.88454914 C21.0433156 43.7399484 17.91110151 40.59348744 14.78302002 37.44287109 C11.74717167 34.38530231 8.70647163 31.33263704 5.66234016 28.28331566 C4.50556895 27.12285338 3.35055746 25.96063418 2.19735527 24.79662514 C0.58681706 23.17157844 -1.02986242 21.55288915 -2.64813232 19.93554688 C-3.56570816 19.01352982 -4.483284 18.09151276 -5.42866516 17.14155579 C-8.74685737 14.14784783 -10.77017326 13.04916772 -15.20062256 12.54760742 C-23.50379541 13.39199788 -28.60502161 19.23872101 -34.15765381 24.93432617 C-34.9198674 25.70315628 -35.68208099 26.47198639 -36.46739197 27.26411438 C-38.88572231 29.70573532 -41.29360248 32.15734024 -43.70062256 34.61010742 C-46.12724284 37.07178129 -48.5559992 39.53129465 -50.9874115 41.98823547 C-52.49639176 43.51420946 -54.00227766 45.04325069 -55.504776 46.5756073 C-56.18275742 47.26334732 -56.86073883 47.95108734 -57.55926514 48.65966797 C-58.15548172 49.26715378 -58.7516983 49.87463959 -59.36598206 50.50053406 C-62.25725879 53.20173518 -64.89676304 53.26355068 -68.79046631 53.19995117 C-72.2971577 52.73631041 -74.27738033 51.22977497 -76.88812256 48.92260742 C-79.25471983 45.48722429 -79.90028846 43.60389802 -79.82562256 39.42260742 C-78.77762197 35.51007187 -77.20644404 33.23385402 -74.88812256 29.92260742 C-74.15321594 28.85878845 -73.41830933 27.79496948 -72.66113281 26.69891357 C-52.80189811 -0.81181789 -32.22248589 -1.83396792 0 0 Z " fill="#189C47" transform="translate(102.88812255859375,105.077392578125)"/>
<path d="M0 0 C1.34771484 -0.01160156 1.34771484 -0.01160156 2.72265625 -0.0234375 C11.40242398 0.00183111 19.0124132 1.07227592 25.5 7.25 C29.98860544 13.41471407 30.03610432 19.58481556 29.890625 26.96875 C29.88659668 27.94360352 29.88256836 28.91845703 29.87841797 29.92285156 C29.85763645 33.53209506 29.80179188 37.14106829 29.75 40.75 C29.6675 48.835 29.585 56.92 29.5 65.25 C10.03 65.25 -9.44 65.25 -29.5 65.25 C-29.5825 57.515625 -29.665 49.78125 -29.75 41.8125 C-29.78641602 39.38849854 -29.82283203 36.96449707 -29.86035156 34.46704102 C-29.87204659 32.52100507 -29.88223648 30.57495926 -29.890625 28.62890625 C-29.91108887 27.6385437 -29.93155273 26.64818115 -29.95263672 25.62780762 C-29.95625358 18.34434956 -28.78695897 11.97339602 -23.83746338 6.36671448 C-17.21687366 -0.11520916 -8.7647851 -0.07545009 0 0 Z " fill="#E96C34" transform="translate(76.5,38.75)"/>
<path d="M0 0 C1.01255859 -0.020625 2.02511719 -0.04125 3.06835938 -0.0625 C11.08044832 -0.10382606 17.50432304 0.98280767 24.25 5.4375 C29.08704947 10.49952852 31.39362974 15.628518 31.39068604 22.6451416 C31.37004089 23.39130737 31.34939575 24.13747314 31.328125 24.90625 C31.32246521 25.69398804 31.31680542 26.48172607 31.31097412 27.29333496 C31.28879902 29.77954034 31.23864337 32.26423928 31.1875 34.75 C31.16741039 36.44789567 31.14916396 38.14581421 31.1328125 39.84375 C31.0889969 43.97973639 31.02010605 48.1146139 30.9375 52.25 C24.8319529 52.27464513 18.72643449 52.29283371 12.62084961 52.30493164 C10.54206844 52.30997288 8.46329084 52.31680574 6.38452148 52.32543945 C3.40347414 52.33751422 0.42247351 52.34323024 -2.55859375 52.34765625 C-3.96171059 52.35539818 -3.96171059 52.35539818 -5.39317322 52.36329651 C-6.68439842 52.36340981 -6.68439842 52.36340981 -8.00170898 52.36352539 C-8.76337875 52.365746 -9.52504852 52.36796661 -10.30979919 52.37025452 C-12.0625 52.25 -12.0625 52.25 -13.0625 51.25 C-13.15576716 49.68452952 -13.17995582 48.11487228 -13.17602539 46.54663086 C-13.17594986 45.54566879 -13.17587433 44.54470673 -13.17579651 43.51341248 C-13.17063522 42.4248848 -13.16547394 41.33635712 -13.16015625 40.21484375 C-13.1587413 39.10645645 -13.15732635 37.99806915 -13.15586853 36.85609436 C-13.15025033 33.29986931 -13.13769475 29.74370617 -13.125 26.1875 C-13.11998734 23.78320403 -13.11542403 21.37890708 -13.11132812 18.97460938 C-13.10027499 13.06638496 -13.08351917 7.1581969 -13.0625 1.25 C-9.15316448 -0.70466776 -4.29878963 0.02132072 0 0 Z " fill="#FAAC1A" transform="translate(122.0625,52.75)"/>
<path d="M0 0 C1.12446533 0.00499512 2.24893066 0.00999023 3.4074707 0.01513672 C4.82374756 0.03334473 6.24002441 0.05155273 7.69921875 0.0703125 C12.21609375 0.1115625 16.73296875 0.1528125 21.38671875 0.1953125 C21.38671875 12.0753125 21.38671875 23.9553125 21.38671875 36.1953125 C6.86671875 36.1953125 -7.65328125 36.1953125 -22.61328125 36.1953125 C-22.61328125 15.1953125 -22.61328125 15.1953125 -17.61328125 7.1953125 C-11.9964128 1.81248023 -7.74079414 -0.07069218 0 0 Z " fill="#60297F" transform="translate(22.61328125,68.8046875)"/>
<path d="M0 0 C4.47870656 2.15937638 7.18198188 4.92952939 10 9 C11.79973286 14.39919857 11.70112627 19.93557265 9.875 25.3125 C6.31570753 30.41415255 2.14670739 33.77065852 -4 35 C-10.15558816 34.8045845 -13.97759078 33.57363733 -19 30 C-23.31949407 25.22582234 -24.24932981 20.28311113 -24 14 C-22.28526429 8.1889512 -19.40084663 4.1116368 -14.20703125 0.88671875 C-9.69483574 -0.92614564 -4.76304744 -0.51716735 0 0 Z " fill="#E96B34" transform="translate(83,0)"/>
<path d="M0 0 C4.80573582 2.61707707 7.09652397 6.22707191 8.8125 11.375 C9.3939719 17.30601336 8.33931767 21.62621452 4.8125 26.375 C1.08931582 29.85445429 -2.64150587 31.66725543 -7.75 31.9375 C-13.66992543 31.57005635 -17.52207987 29.17190067 -21.5625 24.8125 C-24.61932279 20.22726582 -24.93220346 15.7264737 -24.1875 10.375 C-22.3930833 5.59547888 -19.78479912 2.35477675 -15.3125 -0.125 C-9.86534154 -2.40995037 -5.40363255 -2.37719879 0 0 Z " fill="#FAAC1A" transform="translate(130.1875,17.625)"/>
<path d="M0 0 C3.58718018 1.84017685 5.6441285 4.03705359 7.0625 7.875 C6.9028274 15.85862984 2.53317948 19.87590166 -2.94140625 25.1796875 C-6.47972669 28.30844903 -9.15698307 28.32985521 -13.73828125 28.29296875 C-17.0542278 27.86344199 -18.74987627 26.39075646 -21 24 C-22.65405457 20.69189086 -22.75580524 17.5479122 -22 14 C-20.0573588 10.91022052 -17.63295344 8.50904975 -15 6 C-14.42507812 5.39414063 -13.85015625 4.78828125 -13.2578125 4.1640625 C-8.90110033 -0.11234161 -6.06615313 -1.05916959 0 0 Z " fill="#189C47" transform="translate(38,182)"/>
<path d="M0 0 C4.57627119 3.15254237 4.57627119 3.15254237 6 6 C6.55921083 10.05427851 6.89487908 12.57669084 4.68359375 16.09375 C2.88415236 18.18705989 0.99989387 20.09794829 -1 22 C-1.58652344 22.60585937 -2.17304688 23.21171875 -2.77734375 23.8359375 C-5.79108251 26.74716814 -7.38950629 27.90526822 -11.625 28.5625 C-15.17488738 27.9708521 -17.16419014 27.18762475 -20 25 C-22.35171988 21.47242018 -22.59931197 19.55398922 -22.51171875 15.41015625 C-21.5425487 10.84543929 -18.33353467 8.07247472 -15 5 C-14.44054687 4.48050781 -13.88109375 3.96101562 -13.3046875 3.42578125 C-8.74611442 -0.57156047 -5.88503018 -1.53010785 0 0 Z " fill="#189C47" transform="translate(22,166)"/>
<path d="M0 0 C4.02975192 2.24736165 6.53551324 4.60653973 8 9 C8.34530278 14.35219303 8.48807959 17.66997016 5 22 C1.24136662 25.75863338 -1.67801818 26.90824169 -7 27 C-12.21230653 25.40980479 -14.98116952 23.52824572 -18 19 C-19.53597454 15.92805092 -19.2265038 13.39755707 -19 10 C-15.55805552 0.7610964 -9.42052608 -1.81681574 0 0 Z " fill="#60297E" transform="translate(36,39)"/>
<path d="M0 0 C4.57627119 3.15254237 4.57627119 3.15254237 6 6 C6.91062124 12.60200401 6.91062124 12.60200401 4.61328125 16.12890625 C2.81994301 18.17899139 0.9397026 20.08888249 -1 22 C-1.78375 22.969375 -2.5675 23.93875 -3.375 24.9375 C-7.04786725 27.82332426 -10.38194886 28.30172385 -15 28 C-18.670261 26.43818681 -19.7727373 25.34089404 -22 22 C-22.90743212 17.92860101 -22.86977825 14.40618327 -20.64453125 10.80859375 C-18.86076131 8.73343534 -17.01172586 6.85418106 -15 5 C-14.44054688 4.48050781 -13.88109375 3.96101562 -13.3046875 3.42578125 C-8.74611442 -0.57156047 -5.88503018 -1.53010785 0 0 Z " fill="#189C47" transform="translate(72,216)"/>
<path d="M0 0 C4.57627119 3.15254237 4.57627119 3.15254237 6 6 C6.55507299 11.77275915 5.64057481 14.51929254 2 19 C-5.96017101 27.79127935 -5.96017101 27.79127935 -11.21875 28.15234375 C-15.24042842 27.77358979 -17.38799432 27.53550497 -20.5 24.8125 C-22.18356312 21.65581916 -22.92684384 19.58465187 -23 16 C-21.06836639 9.79117769 -15.90564858 5.07445895 -11 1 C-6.87238523 -1.02042405 -4.46406605 -1.30201926 0 0 Z " fill="#189C47" transform="translate(55,199)"/>
</svg>
