<svg width="136" height="57" viewBox="0 0 136 57" fill="none" xmlns="http://www.w3.org/2000/svg">
<path d="M7.2081 15.2232C8.90708 15.2232 10.2844 13.8552 10.2844 12.1677C10.2844 10.4803 8.90708 9.1123 7.2081 9.1123C5.50913 9.1123 4.13184 10.4803 4.13184 12.1677C4.13184 13.8552 5.50913 15.2232 7.2081 15.2232Z" fill="#602A7F"/>
<path d="M28.7872 11.3439C30.8616 11.3439 32.5432 9.67367 32.5432 7.61335C32.5432 5.55303 30.8616 3.88281 28.7872 3.88281C26.7129 3.88281 25.0312 5.55303 25.0312 7.61335C25.0312 9.67367 26.7129 11.3439 28.7872 11.3439Z" fill="#FBAD1B"/>
<path d="M9.33464 16.1904C9.66391 16.1904 9.98141 16.2231 10.2919 16.2815V24.3383H0V21.2011C0 18.4353 2.26016 16.1928 5.04479 16.1928H9.33464V16.1904Z" fill="#602A7F"/>
<path d="M35.9767 17.5849V24.3358H25.8212V13.9618C25.8212 13.5156 25.7695 13.0835 25.666 12.67C25.9812 12.6069 26.3057 12.5742 26.6397 12.5742H30.9319C33.7165 12.5742 35.9767 14.8191 35.9767 17.5849Z" fill="#FBAD1B"/>
<path d="M22.0751 3.98984C22.0751 6.19032 20.2735 7.98201 18.058 7.98201C15.8426 7.98201 14.041 6.19032 14.041 3.98984C14.041 1.78936 15.8426 0 18.058 0C20.2735 0 22.0751 1.79169 22.0751 3.98984Z" fill="#EA6C35"/>
<path d="M24.9086 13.9601V24.3038H11.2041V13.9601C11.2041 11.4046 13.2996 9.32324 15.875 9.32324H20.2354C22.4532 9.32324 24.3159 10.865 24.7886 12.923C24.8686 13.2547 24.9086 13.6051 24.9086 13.9601Z" fill="#EA6C35"/>
<path d="M14.8896 50.0458C14.9296 50.0318 14.9696 50.0201 15.0049 50.0107C14.9649 50.0248 14.9296 50.0364 14.8896 50.0505V50.0458Z" fill="#1C4692"/>
<path d="M35.5253 43.0003C35.5488 43.6147 35.323 44.2314 34.8573 44.6939C34.4152 45.1307 33.8342 45.369 33.2157 45.369C32.5972 45.369 32.0162 45.1307 31.5788 44.6939L29.1563 42.2902L25.4169 38.583C25.2452 38.4125 24.9676 38.4125 24.7959 38.583C24.6243 38.7536 24.6243 39.0269 24.7959 39.1997L27.7499 42.1337L30.9744 45.3316C31.8798 46.2287 31.8798 47.6886 30.9697 48.5903C30.5346 49.0225 29.9583 49.2584 29.3374 49.2584C28.7165 49.2584 28.1356 49.0225 27.7052 48.5833L21.5221 42.4514C21.4774 42.414 21.4045 42.3673 21.3457 42.3463C21.1505 42.2739 20.9294 42.3393 20.8142 42.5121C20.6966 42.6827 20.7225 42.9139 20.8683 43.0658L27.042 49.1977C27.4842 49.6252 27.7217 50.2068 27.7217 50.8212C27.7217 51.4355 27.4842 52.0102 27.042 52.447C26.6116 52.8838 26.0307 53.1174 25.4098 53.1174C24.7889 53.1174 24.2033 52.8815 23.7729 52.447L17.5992 46.3151C17.4275 46.1446 17.1453 46.1492 16.9736 46.3198C16.7948 46.4903 16.7948 46.7659 16.9736 46.9365L23.1449 53.0684C23.5871 53.5075 23.827 54.0892 23.827 54.6989C23.827 55.3086 23.5871 55.8902 23.1449 56.3247C22.7098 56.7615 22.1266 56.9998 21.5033 56.9998C20.8801 56.9998 20.3015 56.7615 19.8711 56.3247L18.2836 54.7479C18.38 54.6335 18.4717 54.5167 18.5517 54.3882C18.594 54.3321 18.6269 54.2737 18.6575 54.213C18.6834 54.1686 18.7069 54.1289 18.7234 54.0892C18.7422 54.0635 18.754 54.0355 18.7657 54.0098C18.801 53.935 18.8339 53.8556 18.8621 53.7738C18.8927 53.6944 18.9186 53.6103 18.9468 53.5262C18.9515 53.5005 18.9609 53.4772 18.9656 53.4538C18.9797 53.3791 19.0009 53.3067 19.0103 53.2296C19.0291 53.1455 19.0362 53.059 19.0479 52.9726C19.0597 52.8675 19.062 52.7647 19.062 52.6549C19.062 51.7906 18.7257 50.987 18.1166 50.3844C17.4181 49.6906 16.4679 49.3729 15.5366 49.457C15.4613 49.4686 15.3884 49.4757 15.3108 49.4873C15.2261 49.5014 15.1438 49.513 15.0638 49.5364C15.0874 49.45 15.1062 49.3612 15.1179 49.2701C15.1297 49.2094 15.1367 49.1463 15.1438 49.0856C15.1556 48.9804 15.1579 48.8776 15.1579 48.7702C15.1579 47.9176 14.8216 47.1093 14.203 46.5043C13.4246 45.7241 12.3074 45.4251 11.2749 45.633C11.2397 45.6377 11.1997 45.6447 11.1644 45.6517V45.647C11.1644 45.647 11.1691 45.6283 11.1715 45.612C11.1856 45.5466 11.1973 45.4788 11.2138 45.4111C11.2397 45.2452 11.2514 45.0747 11.2514 44.8995C11.2514 44.0422 10.9151 43.2386 10.3083 42.6289C9.68742 42.0076 8.85486 41.6899 8.01053 41.6922C7.93762 41.6922 7.86471 41.6969 7.78945 41.6992L7.57307 41.7226C7.51663 41.7272 7.45078 41.7413 7.39433 41.7529C7.37552 41.7576 7.352 41.7646 7.32848 41.767V41.7623H7.33318V41.7506C7.33789 41.7249 7.34494 41.7062 7.34729 41.6782C7.35435 41.6291 7.36141 41.5824 7.37317 41.538V41.5193C7.38022 41.4516 7.38728 41.3745 7.39198 41.2998C7.39904 41.2273 7.40374 41.1526 7.40374 41.0732C7.40374 40.2135 7.06742 39.4053 6.45358 38.8073C6.21604 38.569 5.95263 38.3705 5.65864 38.228C5.38817 38.0831 5.09654 37.985 4.78844 37.929C4.68496 37.9056 4.58618 37.8869 4.48034 37.8846C4.37686 37.8729 4.27103 37.8659 4.17225 37.8659C4.07347 37.8659 3.96528 37.8729 3.86415 37.8846C3.75831 37.8892 3.65718 37.9079 3.55605 37.929C3.24796 37.985 2.95632 38.0855 2.68115 38.228C2.39187 38.3728 2.12846 38.569 1.88621 38.8073L0.0658526 40.6153C0.0470375 40.6387 0.0235189 40.6574 0 40.6807V25.1582H12.1593L5.78564 31.484C4.3651 32.9019 4.3651 35.2052 5.79035 36.6231C6.4771 37.3123 7.40139 37.693 8.37742 37.693C9.35346 37.693 10.273 37.3146 10.9645 36.6231L18.8833 28.7626C19.7676 27.8796 21.2117 27.8796 22.096 28.7626L34.8573 41.4329C35.2877 41.8604 35.5135 42.4257 35.5253 42.9957V43.0003Z" fill="#1C4692"/>
<path d="M7.33087 41.7672H7.32617V41.7718C7.34969 41.7672 7.37085 41.7601 7.39202 41.7578C7.37321 41.7578 7.35439 41.7625 7.33087 41.7695V41.7672ZM6.19727 42.253H6.20197C6.20197 42.253 6.21372 42.2297 6.22078 42.218C6.21372 42.2297 6.20667 42.2414 6.19727 42.253ZM14.8875 50.0458V50.0505C14.9298 50.0388 14.9628 50.0248 15.0027 50.0131C14.9675 50.0201 14.9298 50.0365 14.8875 50.0482V50.0458ZM7.33087 41.7672H7.32617V41.7718C7.34969 41.7672 7.37085 41.7601 7.39202 41.7578C7.37321 41.7578 7.35439 41.7625 7.33087 41.7695V41.7672Z" fill="white"/>
<path d="M35.9768 25.1611V41.4685C35.8451 41.2373 35.6781 41.0177 35.4782 40.8215L22.7192 28.1488C21.4892 26.9271 19.4924 26.9271 18.2624 28.1488L10.3435 36.0141C9.81908 36.535 9.11822 36.8246 8.37737 36.8246C7.63653 36.8246 6.93567 36.535 6.4112 36.0141C5.33168 34.9372 5.33168 33.1852 6.4112 32.1083L13.4081 25.1635H35.9768V25.1611Z" fill="#199D48"/>
<path d="M14.2752 48.7989C14.2705 49.3035 14.1035 49.7777 13.8001 50.1748C13.7954 50.1795 13.7954 50.1842 13.7907 50.1842C13.7013 50.2542 13.6143 50.3267 13.532 50.4107L11.6951 52.2094C11.6011 52.3006 11.5211 52.3916 11.4647 52.4617C10.5333 53.1462 9.22801 53.0481 8.4072 52.2164C7.59815 51.3989 7.50408 50.1561 8.18142 49.2194C8.19083 49.203 8.20023 49.189 8.21199 49.1704C8.26608 49.0886 8.34605 48.9952 8.43542 48.9087L10.2722 47.1147C10.3616 47.0283 10.4533 46.9488 10.5521 46.8858C10.5709 46.8717 10.5827 46.8647 10.6015 46.8554C11.5234 46.2247 12.8005 46.3438 13.5978 47.1427C14.04 47.5936 14.2822 48.1776 14.2752 48.7989Z" fill="#199D48"/>
<path d="M13.7909 50.184C13.7909 50.184 13.7767 50.205 13.7697 50.2143C13.765 50.219 13.7603 50.2284 13.7603 50.2307C13.6991 50.3008 13.6356 50.3732 13.5698 50.4433L11.733 52.242C11.6718 52.3027 11.5989 52.3634 11.5142 52.4242C11.4954 52.4382 11.4837 52.4499 11.4648 52.4592C11.5236 52.3891 11.6036 52.298 11.6953 52.2069L13.5322 50.4082C13.6121 50.3265 13.7015 50.2517 13.7909 50.1816V50.184Z" fill="#199D48"/>
<path d="M11.1914 45.6522V45.6569C11.2267 45.6475 11.2667 45.6404 11.3019 45.6357C11.262 45.6404 11.2267 45.6475 11.1914 45.6522Z" fill="#199D48"/>
<path d="M18.2787 52.7531C18.2787 53.2577 18.1164 53.7343 17.8153 54.1314C17.8106 54.136 17.8106 54.1407 17.8059 54.1407C17.7189 54.2108 17.6295 54.2855 17.5496 54.3673L15.7292 56.18C15.6375 56.2711 15.5575 56.3646 15.5011 56.4346C14.5744 57.1261 13.2691 57.0396 12.4413 56.215C11.6252 55.4045 11.5193 54.1617 12.1896 53.2203C12.199 53.2016 12.2084 53.19 12.2202 53.1713C12.2719 53.0872 12.3519 52.9961 12.4413 52.9097L14.2616 51.1016C14.3486 51.0152 14.4427 50.9358 14.5392 50.8703C14.5556 50.8563 14.5697 50.8493 14.5885 50.84C15.5058 50.1999 16.7852 50.3097 17.5872 51.1016C18.0317 51.5478 18.2787 52.1318 18.2787 52.7531Z" fill="#199D48"/>
<path d="M17.8062 54.1406C17.8062 54.1406 17.7921 54.1616 17.7851 54.171C17.7804 54.1757 17.7756 54.185 17.7756 54.1873C17.7145 54.2574 17.6534 54.3322 17.5851 54.4023L15.7648 56.215C15.7036 56.2757 15.6331 56.3364 15.5484 56.3995C15.5319 56.4135 15.5178 56.4252 15.499 56.4345C15.5555 56.3645 15.6354 56.2734 15.7272 56.1799L17.5475 54.3672C17.6275 54.2831 17.7145 54.2107 17.8039 54.1406H17.8062Z" fill="#199D48"/>
<path d="M15.1699 49.6297V49.6345C15.2052 49.625 15.2452 49.6156 15.2805 49.6133C15.2405 49.618 15.2052 49.6274 15.1699 49.6297Z" fill="#199D48"/>
<path d="M7.04113 42.7812C6.97058 42.8163 6.90472 42.8513 6.83887 42.891V42.8864C6.90472 42.8467 6.97058 42.8116 7.04113 42.7812Z" fill="#199D48"/>
<path d="M10.3686 44.9024C10.3686 45.3789 10.2275 45.8344 9.94524 46.2339C9.94524 46.2386 9.94053 46.2386 9.94053 46.2386C9.93113 46.2549 9.91937 46.2736 9.90526 46.2899C9.84881 46.374 9.77355 46.4651 9.67948 46.5516L7.85441 48.3596C7.76974 48.446 7.67802 48.5208 7.5863 48.5909C7.56984 48.6049 7.55102 48.6166 7.53456 48.6259C6.61262 49.2613 5.33554 49.1562 4.53119 48.3596C3.78564 47.6191 3.63512 46.4558 4.16194 45.5494C4.17605 45.5237 4.19252 45.4934 4.21134 45.4654C4.30306 45.3205 4.4089 45.185 4.53355 45.0589L6.35861 43.2508C6.47856 43.1317 6.61497 43.0266 6.76784 42.9308C6.78901 42.9168 6.81252 42.9005 6.83839 42.8911C6.90425 42.8514 6.9701 42.8164 7.04066 42.7813C7.11122 42.7509 7.18177 42.7253 7.25233 42.6972C7.39814 42.6458 7.54396 42.6108 7.69213 42.5874C7.80267 42.5734 7.90851 42.5664 8.01904 42.5664C8.17427 42.5664 8.32244 42.5804 8.47296 42.6108C8.54822 42.6248 8.61878 42.6458 8.69404 42.6622C8.76459 42.6832 8.83985 42.7112 8.91041 42.7369C9.12208 42.8234 9.32434 42.9425 9.50543 43.092C9.56658 43.1411 9.62538 43.1924 9.68182 43.2485C10.1263 43.69 10.3686 44.2787 10.3686 44.9V44.9024Z" fill="#199D48"/>
<path d="M6.83887 42.8864V42.891C6.90472 42.8513 6.97058 42.8163 7.04113 42.7812C6.97058 42.8116 6.90472 42.8467 6.83887 42.8864ZM6.83887 42.8864V42.891C6.90472 42.8513 6.97058 42.8163 7.04113 42.7812C6.97058 42.8116 6.90472 42.8467 6.83887 42.8864ZM6.83887 42.8864V42.891C6.90472 42.8513 6.97058 42.8163 7.04113 42.7812C6.97058 42.8116 6.90472 42.8467 6.83887 42.8864ZM6.83887 42.8864V42.891C6.90472 42.8513 6.97058 42.8163 7.04113 42.7812C6.97058 42.8116 6.90472 42.8467 6.83887 42.8864ZM6.83887 42.8864V42.891C6.90472 42.8513 6.97058 42.8163 7.04113 42.7812C6.97058 42.8116 6.90472 42.8467 6.83887 42.8864Z" fill="#199D48"/>
<path d="M6.52138 41.0784C6.52138 41.4731 6.42496 41.8492 6.23916 42.1903C6.22505 42.209 6.21328 42.23 6.19917 42.251C6.18506 42.2767 6.1733 42.3001 6.15448 42.3258C6.15448 42.3304 6.14978 42.3304 6.14978 42.3351C6.06982 42.4659 5.95928 42.6014 5.83228 42.7299L4.01192 44.5426C3.88021 44.6734 3.74381 44.7832 3.60269 44.872C3.57682 44.8907 3.55094 44.9023 3.52272 44.921C2.61019 45.4373 1.4319 45.2855 0.6887 44.5449C0.248897 44.1035 0.00195312 43.5148 0.00195312 42.8887V42.8374C0.0160645 42.237 0.263009 41.667 0.6887 41.2395L2.50906 39.4315C2.6243 39.317 2.7419 39.2213 2.87125 39.1372C2.99825 39.0507 3.13231 38.9807 3.27342 38.9269C3.33928 38.8966 3.40983 38.8709 3.48039 38.8522C3.50156 38.8428 3.52508 38.8382 3.55095 38.8312C3.60269 38.8148 3.66148 38.8008 3.72263 38.7915C3.7438 38.7868 3.76732 38.7821 3.7932 38.7774C3.91549 38.7564 4.04014 38.7471 4.16714 38.7471C4.17185 38.7471 4.17655 38.7517 4.18125 38.7471C4.25652 38.7471 4.33177 38.7517 4.40703 38.7611C4.47759 38.7704 4.54815 38.7774 4.6187 38.7915C4.69396 38.8055 4.76922 38.8218 4.83978 38.8428C4.9856 38.8872 5.13142 38.9433 5.26783 39.018C5.33368 39.0531 5.40423 39.0928 5.46538 39.1372C5.51713 39.1722 5.57122 39.2073 5.62296 39.2516C5.69352 39.303 5.76878 39.3708 5.83463 39.4362C6.27914 39.8707 6.52138 40.457 6.52138 41.083V41.0784Z" fill="#199D48"/>
<path d="M43.1102 29.4075V14.5391H46.8944L50.8714 20.4L54.8696 14.5391H58.6538V29.4075H55.2106V19.8511L50.8902 26.1371L46.5486 19.8511V29.4075H43.1055H43.1102Z" fill="white"/>
<path d="M62.8473 17.429C62.3487 17.429 61.9089 17.2421 61.5326 16.866C61.154 16.4899 60.9658 16.0554 60.9658 15.5602C60.9658 15.0369 61.154 14.5931 61.5326 14.2334C61.9113 13.8713 62.3487 13.6914 62.8473 13.6914C63.3459 13.6914 63.8022 13.8713 64.1738 14.2334C64.5454 14.5954 64.7288 15.0369 64.7288 15.5602C64.7288 16.0554 64.543 16.4922 64.1738 16.866C63.8022 17.2421 63.3624 17.429 62.8473 17.429ZM61.1775 29.4078V18.7885H64.5125V29.4078H61.1775Z" fill="white"/>
<path d="M66.6738 29.4075V14.5391H70.0088V29.4075H66.6738Z" fill="white"/>
<path d="M77.1299 29.4075V14.5391H80.5519V29.4075H77.1299ZM79.1172 26.2633L78.9455 21.6965L85.5755 14.5391H90.0653L79.1172 26.2633ZM86.0247 29.4075L80.145 21.846L82.6897 19.8277L90.2816 29.4075H86.0271H86.0247Z" fill="white"/>
<path d="M95.6277 29.6621C94.5153 29.6621 93.5322 29.4239 92.6761 28.9497C91.82 28.4755 91.1497 27.8214 90.6652 26.9851C90.1807 26.1488 89.9385 25.1864 89.9385 24.0955C89.9385 23.0046 90.1854 22.0212 90.677 21.1849C91.1685 20.3486 91.8435 19.6992 92.6973 19.232C93.551 18.7648 94.5435 18.5312 95.67 18.5312C96.6813 18.5312 97.5939 18.7719 98.4076 19.2531C99.219 19.7343 99.8658 20.4491 100.343 21.3975C100.821 22.3459 101.061 23.5279 101.061 24.9435H93.0195L93.3816 24.5394C93.3816 25.0206 93.4804 25.4457 93.6803 25.8148C93.8802 26.1839 94.1578 26.4619 94.5153 26.6534C94.8727 26.845 95.2702 26.9407 95.7124 26.9407C96.2392 26.9407 96.6861 26.8239 97.0482 26.5903C97.4104 26.3567 97.6644 26.0624 97.8079 25.7097L100.76 26.7071C100.475 27.3729 100.07 27.9242 99.5506 28.3633C99.0309 28.8025 98.4359 29.1272 97.7656 29.3398C97.0953 29.5524 96.3826 29.6575 95.6277 29.6575V29.6621ZM93.4663 23.1635L93.1253 22.7383H97.9161L97.6174 23.1635C97.6174 22.6402 97.5116 22.2221 97.2975 21.9114C97.0835 21.6007 96.8201 21.3765 96.5073 21.2433C96.1945 21.1078 95.8793 21.0424 95.5665 21.0424C95.2537 21.0424 94.9362 21.1102 94.614 21.2433C94.2942 21.3788 94.0214 21.6007 93.8026 21.9114C93.5815 22.2221 93.471 22.6402 93.471 23.1635H93.4663Z" fill="white"/>
<path d="M43.1094 47.9384V33.0723H46.5314V47.9384H43.1094ZM45.0967 44.7965L44.925 40.2297L51.555 33.0723H56.0448L45.0967 44.7965ZM52.0042 47.9384L46.1245 40.3768L48.6692 38.3586L56.2611 47.9384H52.0066H52.0042Z" fill="white"/>
<path d="M57.3711 47.9384V33.0723H60.7061V47.9384H57.3711ZM64.2574 42.5026C64.2574 41.9373 64.1939 41.4864 64.0646 41.1547C63.9352 40.823 63.7518 40.5777 63.5095 40.4212C63.2673 40.2647 62.9827 40.1806 62.6534 40.1666C62.0114 40.1526 61.5269 40.3255 61.2 40.6875C60.8707 41.0473 60.7084 41.5962 60.7084 42.3344H59.7042C59.7042 41.2155 59.8758 40.2647 60.2169 39.4775C60.5602 38.6926 61.0259 38.0946 61.6186 37.6835C62.2089 37.2724 62.891 37.0668 63.66 37.0668C64.5302 37.0668 65.257 37.2396 65.8402 37.5877C66.4235 37.9358 66.8633 38.4614 67.1549 39.1692C67.4466 39.877 67.5924 40.7833 67.5924 41.8882V42.5049H64.2574V42.5026ZM64.2574 47.9384V42.5002H67.5924V47.9384H64.2574Z" fill="white"/>
<path d="M72.8537 48.1934C71.5837 48.1934 70.6006 47.9107 69.902 47.3431C69.2035 46.7778 68.8555 45.9766 68.8555 44.9441C68.8555 43.8251 69.22 42.9912 69.9467 42.4376C70.6735 41.8863 71.6918 41.6083 73.0042 41.6083H75.9346V43.7317H74.2672C73.5545 43.7317 73.0418 43.8298 72.7267 44.0284C72.4139 44.2269 72.2563 44.5026 72.2563 44.8576C72.2563 45.1123 72.3739 45.3132 72.6091 45.4627C72.8443 45.6122 73.1688 45.6869 73.5828 45.6869C73.9967 45.6869 74.3589 45.5981 74.674 45.4206C74.9868 45.2431 75.2338 45.0071 75.4125 44.7081C75.5913 44.4115 75.6806 44.0844 75.6806 43.7317H76.5156C76.5156 45.1473 76.2169 46.2452 75.6171 47.0231C75.0174 47.801 74.0978 48.1911 72.8584 48.1911L72.8537 48.1934ZM75.7606 47.9388L75.6759 45.6448V42.6501C75.6759 42.0848 75.6265 41.5873 75.5254 41.1621C75.4266 40.737 75.2479 40.4053 74.9915 40.1647C74.7352 39.9241 74.3495 39.8026 73.8368 39.8026C73.4369 39.8026 73.0889 39.8937 72.7902 40.0782C72.4915 40.2628 72.2351 40.5174 72.0211 40.8421L69.1142 39.8867C69.3564 39.3634 69.688 38.8892 70.109 38.4641C70.53 38.0389 71.0474 37.7002 71.6589 37.4456C72.2728 37.191 72.9854 37.0625 73.7968 37.0625C74.9092 37.0625 75.85 37.2681 76.619 37.6792C77.3881 38.0903 77.9667 38.6626 78.35 39.3985C78.7357 40.1343 78.9286 41.0056 78.9286 42.0101L78.8863 47.9364H75.7653L75.7606 47.9388Z" fill="white"/>
<path d="M80.7441 47.9383V37.319H84.0791V47.9383H80.7441ZM83.2019 42.4371C83.2019 41.2902 83.4323 40.3347 83.8957 39.5709C84.359 38.807 84.9446 38.2324 85.6502 37.8516C86.3557 37.4685 87.0942 37.2793 87.8633 37.2793V40.5076C87.2071 40.5076 86.5909 40.5777 86.0147 40.7202C85.4385 40.8627 84.9705 41.0776 84.6153 41.3672C84.2579 41.6569 84.0815 42.0283 84.0815 42.4815L83.2042 42.4395L83.2019 42.4371Z" fill="white"/>
<path d="M94.1716 48.1934C93.0592 48.1934 92.0761 47.9551 91.22 47.4809C90.3639 47.0067 89.6937 46.3527 89.2092 45.5164C88.7247 44.6824 88.4824 43.7177 88.4824 42.6291C88.4824 41.5406 88.7294 40.5548 89.2209 39.7185C89.7125 38.8822 90.3875 38.2305 91.2412 37.7633C92.0949 37.2961 93.0874 37.0625 94.214 37.0625C95.2253 37.0625 96.1378 37.3031 96.9516 37.7843C97.763 38.2655 98.4098 38.9803 98.8872 39.9287C99.3646 40.8771 99.6045 42.0591 99.6045 43.4747H91.5634L91.9256 43.0706C91.9256 43.5518 92.0244 43.977 92.2243 44.3461C92.4242 44.7151 92.7017 44.9931 93.0592 45.1847C93.4167 45.3762 93.8142 45.472 94.2563 45.472C94.7831 45.472 95.23 45.3552 95.5922 45.1216C95.9544 44.888 96.2084 44.5937 96.3518 44.2409L99.3035 45.2384C99.0189 45.9041 98.6144 46.4554 98.0946 46.8946C97.5748 47.3338 96.9798 47.6585 96.3095 47.871C95.6392 48.0836 94.9266 48.1887 94.1716 48.1887V48.1934ZM92.0126 41.6947L91.6716 41.2696H96.4624L96.1637 41.6947C96.1637 41.1715 96.0579 40.7533 95.8438 40.4427C95.6298 40.132 95.3664 39.9077 95.0536 39.7746C94.7408 39.6391 94.4256 39.5737 94.1128 39.5737C93.8 39.5737 93.4825 39.6414 93.1603 39.7746C92.8405 39.91 92.5677 40.132 92.3489 40.4427C92.1278 40.7533 92.0173 41.1715 92.0173 41.6947H92.0126Z" fill="white"/>
<path d="M105.933 48.1934C104.821 48.1934 103.838 47.9551 102.982 47.4809C102.126 47.0067 101.455 46.3527 100.971 45.5164C100.486 44.6824 100.244 43.7177 100.244 42.6291C100.244 41.5406 100.491 40.5548 100.983 39.7185C101.474 38.8822 102.149 38.2305 103.003 37.7633C103.857 37.2961 104.849 37.0625 105.976 37.0625C106.987 37.0625 107.9 37.3031 108.713 37.7843C109.525 38.2655 110.171 38.9803 110.649 39.9287C111.126 40.8771 111.366 42.0591 111.366 43.4747H103.325L103.687 43.0706C103.687 43.5518 103.786 43.977 103.986 44.3461C104.186 44.7151 104.463 44.9931 104.821 45.1847C105.178 45.3762 105.576 45.472 106.018 45.472C106.545 45.472 106.992 45.3552 107.354 45.1216C107.716 44.888 107.97 44.5937 108.114 44.2409L111.065 45.2384C110.781 45.9041 110.376 46.4554 109.856 46.8946C109.337 47.3338 108.742 47.6585 108.071 47.871C107.401 48.0836 106.688 48.1887 105.933 48.1887V48.1934ZM103.774 41.6947L103.433 41.2696H108.224L107.925 41.6947C107.925 41.1715 107.82 40.7533 107.606 40.4427C107.392 40.132 107.128 39.9077 106.815 39.7746C106.503 39.6391 106.187 39.5737 105.875 39.5737C105.562 39.5737 105.244 39.6414 104.922 39.7746C104.602 39.91 104.329 40.132 104.111 40.4427C103.89 40.7533 103.779 41.1715 103.779 41.6947H103.774Z" fill="white"/>
<path d="M116.839 48.1934C115.842 48.1934 114.981 47.9691 114.261 47.5253C113.542 47.0791 112.984 46.4391 112.594 45.6028C112.201 44.7665 112.006 43.7761 112.006 42.6291C112.006 41.4821 112.201 40.473 112.594 39.6437C112.987 38.8145 113.542 38.1791 114.261 37.7329C114.981 37.2867 115.839 37.0648 116.839 37.0648C117.723 37.0648 118.466 37.2891 119.073 37.7329C119.68 38.1791 120.132 38.8168 120.43 39.6437C120.729 40.473 120.88 41.4681 120.88 42.6291C120.88 43.7901 120.729 44.7665 120.43 45.6028C120.132 46.4391 119.678 47.0791 119.073 47.5253C118.466 47.9715 117.723 48.1934 116.839 48.1934ZM117.716 45.1356C118.13 45.1356 118.499 45.0305 118.829 44.8179C119.156 44.6053 119.412 44.311 119.598 43.9372C119.784 43.5611 119.875 43.1267 119.875 42.6314C119.875 42.1362 119.784 41.6994 119.598 41.3256C119.412 40.9495 119.156 40.6575 118.829 40.445C118.499 40.2324 118.123 40.1273 117.695 40.1273C117.267 40.1273 116.888 40.2324 116.561 40.445C116.235 40.6575 115.973 40.9519 115.781 41.3256C115.588 41.7017 115.484 42.1362 115.47 42.6314C115.484 43.1267 115.588 43.5635 115.781 43.9372C115.973 44.3133 116.237 44.6053 116.571 44.8179C116.905 45.0305 117.288 45.1356 117.714 45.1356H117.716ZM120.026 47.9388L119.875 45.9625V33.0703H123.21V47.9364H120.023L120.026 47.9388Z" fill="white"/>
<path d="M130.353 48.1934C129.226 48.1934 128.236 47.9551 127.38 47.4809C126.524 47.0067 125.851 46.3527 125.36 45.5164C124.868 44.6824 124.621 43.7177 124.621 42.6291C124.621 41.5406 124.859 40.5758 125.338 39.7395C125.816 38.9032 126.486 38.2492 127.349 37.775C128.212 37.3008 129.191 37.0625 130.289 37.0625C131.387 37.0625 132.408 37.3008 133.271 37.775C134.134 38.2492 134.805 38.9032 135.282 39.7395C135.76 40.5758 136 41.5382 136 42.6291C136 43.72 135.76 44.6824 135.282 45.5164C134.805 46.3527 134.139 47.0067 133.283 47.4809C132.427 47.9551 131.451 48.1934 130.353 48.1934ZM130.353 45.1356C130.781 45.1356 131.162 45.0305 131.498 44.8179C131.832 44.6053 132.095 44.311 132.288 43.9373C132.481 43.5612 132.578 43.1267 132.578 42.6315C132.578 42.1362 132.481 41.6994 132.288 41.3256C132.095 40.9496 131.827 40.6576 131.486 40.445C131.145 40.2324 130.752 40.1273 130.31 40.1273C129.868 40.1273 129.475 40.2324 129.134 40.445C128.793 40.6576 128.525 40.9519 128.332 41.3256C128.14 41.7017 128.043 42.1362 128.043 42.6315C128.043 43.1267 128.14 43.5635 128.332 43.9373C128.525 44.3133 128.796 44.6053 129.146 44.8179C129.494 45.0305 129.899 45.1356 130.355 45.1356H130.353Z" fill="white"/>
</svg>
