<svg width="162" height="183" viewBox="0 0 162 183" fill="none" xmlns="http://www.w3.org/2000/svg">
<path d="M111.506 59.925C115.846 53.741 118.4 46.212 118.4 38.083C118.4 17.052 101.348 0 80.3155 0C59.2825 0 42.2325 17.052 42.2325 38.083C42.2325 46.212 44.7865 53.74 49.1265 59.925C-1.7515 78.707 -11.5915 131.178 12.5965 164.055C16.8915 169.894 22.2595 175.116 28.6635 179.418C39.1235 186.447 55.9205 183.396 55.0845 165.902V156.797C55.0845 148.15 51.2795 144.893 45.5255 144.893H44.3565C40.3805 144.893 38.5215 139.395 41.5055 136.458L72.6595 109.924C77.3195 105.342 83.4815 105.2 88.2855 109.924L119.439 136.458C122.423 139.395 120.563 144.893 116.586 144.893H115.42C109.664 144.893 105.861 148.15 105.861 156.797C105.861 172.159 105.786 165.593 106.115 168.449C108.102 185.694 124.733 184.163 132.512 179.417C139.099 175.399 144.285 169.893 148.579 164.054C172.77 131.178 162.383 78.708 111.506 59.925Z" fill="#FF765E"/>
</svg>
