<svg width="20" height="20" viewBox="0 0 20 20" fill="none" xmlns="http://www.w3.org/2000/svg">
<path d="M19.1725 4.94994C19.1725 3.38974 17.4077 2.49914 16.1719 3.43414L15.0031 4.31954V4.32214L10.0003 8.10914L4.99753 4.31954L3.83133 3.43654C2.59293 2.50153 0.828125 3.39234 0.828125 4.95234V15.6831C0.828125 16.3811 1.38793 16.9463 2.07952 16.9463H4.99753V9.79174L10.0003 13.5787L15.0031 9.79174V9.78914L15.0089 9.78474L15.0031 9.79174V16.9463H17.9211C18.6125 16.9463 19.1725 16.3811 19.1725 15.6831V6.63514L19.1649 6.63814L19.1725 6.63254V4.94994Z" fill="#B5332A"/>
<path d="M2.07952 16.946H4.99753V9.79136L0.828125 6.63477V15.683C0.828125 16.3808 1.38793 16.946 2.07952 16.946Z" fill="#4E85EB"/>
<path d="M15.0029 16.946H17.9209C18.6123 16.946 19.1723 16.3808 19.1723 15.6828V6.63477L15.0029 9.79136V16.946Z" fill="#58A45C"/>
<path d="M15.0029 4.31954V9.78914L19.1723 6.63254V4.94994C19.1723 3.38974 17.4075 2.49914 16.1717 3.43414L15.0029 4.31954Z" fill="#F2BC42"/>
<path d="M4.99707 9.79251V4.32031L9.99987 8.10991L15.0027 4.32291V9.79251L9.99987 13.5795L4.99707 9.79251Z" fill="#D85040"/>
<path d="M0.828125 4.95196V6.63456L4.99753 9.79116V4.31896L3.83133 3.43596C2.59293 2.50116 0.828125 3.39176 0.828125 4.95196Z" fill="#B5332A"/>
</svg>
