<svg width="50" height="50" viewBox="0 0 50 50" fill="none" xmlns="http://www.w3.org/2000/svg">
<path fill-rule="evenodd" clip-rule="evenodd" d="M24.9992 5.3498C19.2492 5.3498 14.1492 8.0998 10.9492 12.3498C11.5492 12.7498 11.9992 13.4498 11.9992 14.2498C11.9992 14.6498 11.8992 15.0498 11.6992 15.3998C13.0992 16.0998 14.8492 16.6498 16.7992 17.0498C16.9992 15.9998 17.8992 15.1998 19.0492 15.1998H19.3992C20.3492 9.3498 22.4992 5.3498 24.9992 5.3498ZM39.0492 12.2998C35.8492 8.0498 30.7492 5.2998 24.9992 5.2998C27.7992 5.2998 30.1492 10.3998 30.9992 17.3998C33.8492 16.9498 36.3992 16.2498 38.3492 15.2998C38.1492 14.9498 38.0492 14.5498 38.0492 14.1498C37.9992 13.3998 38.3992 12.6998 39.0492 12.2998Z" fill="#4BC8DD"/>
<path fill-rule="evenodd" clip-rule="evenodd" d="M38.2992 15.3496C36.3492 16.2996 33.8492 16.9996 30.9492 17.4496C31.1492 19.1496 31.2492 20.9496 31.2492 22.8496C31.2492 24.4996 31.1492 26.1496 30.9992 27.6496H41.8492C42.2992 26.0996 42.4992 24.4996 42.4992 22.8496C42.4992 20.4996 42.0492 18.2996 41.1992 16.2496C40.8992 16.3996 40.5492 16.4996 40.1992 16.4996C39.4492 16.4996 38.6992 16.0496 38.2992 15.3496Z" fill="#9BE0ED"/>
<path fill-rule="evenodd" clip-rule="evenodd" d="M31 17.4502C29.15 17.7502 27.1 17.9002 25 17.9002C23.7 17.9002 22.5 17.8502 21.3 17.7502C21.15 18.9002 20.2 19.7502 19.05 19.7502H18.85C18.8 20.7502 18.75 21.8002 18.75 22.9002C18.75 24.5502 18.85 26.2002 19 27.7002H31.1C31.25 26.1502 31.35 24.5502 31.35 22.9002C31.3 20.9502 31.2 19.1502 31 17.4502Z" fill="#4BC8DD"/>
<path fill-rule="evenodd" clip-rule="evenodd" d="M16.7484 17.0494C14.7984 16.6494 13.0984 16.0494 11.6484 15.3994C11.2484 16.0494 10.4984 16.5494 9.69844 16.5494C9.34844 16.5494 8.99844 16.4494 8.69844 16.2994C7.84844 18.3494 7.39844 20.5494 7.39844 22.8994C7.39844 24.5494 7.64844 26.1994 8.04844 27.6994H18.8984C18.7484 26.1494 18.6484 24.5494 18.6484 22.8994C18.6484 21.7994 18.6984 20.7494 18.7484 19.7494C17.5984 19.6494 16.6484 18.6494 16.6484 17.4994C16.7484 17.2994 16.7484 17.1494 16.7484 17.0494Z" fill="#9BE0ED"/>
<path fill-rule="evenodd" clip-rule="evenodd" d="M9.69844 11.9502C8.44844 11.9502 7.39844 12.9502 7.39844 14.2002C7.39844 15.1002 7.89844 15.9002 8.69844 16.2502C8.99844 16.4002 9.34844 16.5002 9.69844 16.5002C10.5484 16.5002 11.2484 16.0502 11.6484 15.3502C11.8484 15.0002 11.9484 14.6002 11.9484 14.2002C11.9484 13.4002 11.5484 12.7002 10.8984 12.3002C10.5984 12.1002 10.1984 11.9502 9.69844 11.9502ZM18.9984 15.1502C17.8984 15.1502 16.9484 15.9502 16.7484 17.0002C16.7484 17.1502 16.6984 17.2502 16.6984 17.4002C16.6984 18.6002 17.5984 19.5502 18.7984 19.6502H18.9984C20.1484 19.6502 21.1484 18.7502 21.2484 17.6502V17.4002C21.2484 16.2502 20.3984 15.3002 19.2984 15.1502H18.9984ZM39.0484 12.3002C38.4484 12.7002 37.9984 13.4002 37.9984 14.2002C37.9984 14.6002 38.0984 15.0002 38.2984 15.3502C38.6984 16.0002 39.4484 16.5002 40.2484 16.5002C40.5984 16.5002 40.9484 16.4002 41.2484 16.2502C41.9984 15.9002 42.5484 15.1002 42.5484 14.2002C42.5484 12.9502 41.5484 11.9502 40.2484 11.9502C39.7984 11.9502 39.3984 12.1002 39.0484 12.3002Z" fill="#FFDF41"/>
<path fill-rule="evenodd" clip-rule="evenodd" d="M24.9996 5.34961C22.4996 5.34961 20.3496 9.34961 19.3496 15.1996C20.4496 15.3496 21.2996 16.2996 21.2996 17.4496V17.6996C22.4996 17.7996 23.7496 17.8496 24.9996 17.8496C27.0996 17.8496 29.0996 17.6996 30.9996 17.3996C30.1496 10.3996 27.7996 5.34961 24.9996 5.34961Z" fill="#9BE0ED"/>
<path fill-rule="evenodd" clip-rule="evenodd" d="M31.0484 27.6494H6.19844C4.94844 27.6494 3.84844 28.4494 3.39844 29.5994V42.6994C3.79844 43.8494 4.89844 44.6494 6.19844 44.6494H43.7984C45.0484 44.6494 46.1484 43.8494 46.5984 42.6994V29.5994C46.1984 28.4494 45.0984 27.6494 43.7984 27.6494H41.8984H31.0484Z" fill="white"/>
<path d="M43.7992 26.8998H42.8492C43.1492 25.5998 43.2992 24.1998 43.2992 22.8498C43.2992 20.6998 42.8992 18.5498 42.1992 16.5498C42.8992 15.9998 43.2992 15.1498 43.2992 14.1998C43.2992 12.5498 41.9492 11.1498 40.2492 11.1498C39.8992 11.1498 39.5492 11.1998 39.1992 11.3498C35.7492 7.0498 30.5992 4.5498 24.9992 4.5498C19.3992 4.5498 14.2492 6.9998 10.7492 11.3498C10.4492 11.2498 10.0992 11.1498 9.69922 11.1498C8.04922 11.1498 6.64922 12.4998 6.64922 14.1998C6.64922 15.1498 7.09922 15.9998 7.74922 16.5498C6.99922 18.5498 6.64922 20.6498 6.64922 22.8498C6.64922 24.1998 6.79922 25.5998 7.09922 26.8998H6.14922C4.09922 26.8998 2.44922 28.5498 2.44922 30.5998V41.6998C2.44922 43.7498 4.09922 45.3998 6.14922 45.3998H43.7492C45.7992 45.3998 47.4492 43.7498 47.4492 41.6998V30.5998C47.4992 28.5498 45.8492 26.8998 43.7992 26.8998ZM41.7992 22.8498C41.7992 24.1998 41.5992 25.5998 41.2992 26.8998H31.8992C31.9992 25.5498 32.0492 24.1998 32.0492 22.8498C32.0492 21.2498 31.9492 19.6498 31.7992 18.0498C34.1492 17.6498 36.2992 17.0498 38.0492 16.2998C38.5992 16.8998 39.3992 17.2498 40.2492 17.2498C40.4492 17.2498 40.5992 17.2498 40.7992 17.1998C41.4492 18.9998 41.7992 20.8998 41.7992 22.8498ZM19.6492 26.8998C19.5492 25.5498 19.4992 24.1998 19.4992 22.8498C19.4992 22.0498 19.5492 21.1998 19.5492 20.3998C20.5992 20.1998 21.4992 19.4498 21.8492 18.4998C22.8992 18.5998 23.9492 18.5998 24.9992 18.5998C26.7992 18.5998 28.5992 18.4998 30.2992 18.2498C30.4492 19.6998 30.4992 21.1998 30.4992 22.7998C30.4992 24.1498 30.4492 25.5498 30.2992 26.8498H19.6492V26.8998ZM18.9992 15.9498C19.8492 15.9498 20.4992 16.6498 20.4992 17.4498C20.4992 18.2998 19.7992 18.9498 18.9992 18.9498C18.1992 18.9498 17.4992 18.2498 17.4992 17.4498C17.4992 16.5998 18.1492 15.9498 18.9992 15.9498ZM24.9992 6.0998C27.0492 6.0998 29.2492 10.2998 30.1492 16.7998C28.4992 16.9998 26.7492 17.0998 24.9992 17.0998C23.9992 17.0998 22.9992 17.0498 21.9992 16.9998C21.8492 15.9498 21.1492 15.0498 20.1992 14.6498C21.1992 9.4998 23.0992 6.0998 24.9992 6.0998ZM41.7992 14.1998C41.7992 15.0498 41.0992 15.6998 40.2992 15.6998C39.4992 15.6998 38.7992 14.9998 38.7992 14.1998C38.7992 13.3498 39.4992 12.6998 40.2992 12.6998C41.0992 12.6998 41.7992 13.3998 41.7992 14.1998ZM37.9992 12.2498C37.5492 12.7998 37.2492 13.4998 37.2492 14.2498C37.2492 14.4998 37.2992 14.7498 37.3492 14.9998C35.6992 15.6998 33.7492 16.2498 31.6492 16.5998C31.0992 12.3498 29.8992 8.5498 28.1992 6.4498C32.0492 7.1498 35.4492 9.1498 37.9992 12.2498ZM21.8492 6.3998C20.4992 8.0498 19.3992 10.7998 18.7492 14.4498C17.6492 14.5498 16.7492 15.2498 16.2992 16.1498C14.9492 15.8498 13.7492 15.4498 12.6992 14.9998C12.7492 14.7498 12.7992 14.4998 12.7992 14.2498C12.7992 13.4998 12.4992 12.7998 12.0492 12.2498C14.5492 9.1498 17.9992 7.0998 21.8492 6.3998ZM9.69922 12.6998C10.5492 12.6998 11.1992 13.3998 11.1992 14.1998C11.1992 15.0498 10.4992 15.6998 9.69922 15.6998C8.89922 15.6998 8.19922 14.9998 8.19922 14.1998C8.19922 13.3998 8.89922 12.6998 9.69922 12.6998ZM8.19922 22.8498C8.19922 20.8998 8.54922 18.9998 9.19922 17.1998C9.34922 17.2498 9.54922 17.2498 9.74922 17.2498C10.5992 17.2498 11.3992 16.8998 11.9492 16.2998C13.1492 16.7998 14.4992 17.2498 15.9992 17.6498C16.0492 18.8998 16.8992 19.9498 18.0492 20.3498C17.9992 21.1998 17.9992 22.0498 17.9992 22.8998C17.9992 24.2498 18.0492 25.5998 18.1492 26.9498H8.69922C8.34922 25.5998 8.19922 24.2498 8.19922 22.8498ZM45.9992 41.6998C45.9992 42.8998 44.9992 43.8998 43.7992 43.8998H6.19922C4.99922 43.8998 3.99922 42.8998 3.99922 41.6998V30.5998C3.99922 29.3998 4.99922 28.3998 6.19922 28.3998H43.7992C44.9992 28.3998 45.9992 29.3998 45.9992 30.5998V41.6998Z" fill="black"/>
<path d="M9.59922 33.5994C9.19922 33.5994 8.79922 33.6994 8.44922 33.8494V31.8994C8.44922 31.4994 8.09922 31.1494 7.69922 31.1494C7.29922 31.1494 6.94922 31.4994 6.94922 31.8994V39.5994C6.94922 39.9994 7.29922 40.3494 7.69922 40.3494C8.09922 40.3494 8.44922 39.9994 8.44922 39.5994V36.1994C8.44922 35.5994 8.94922 35.0494 9.59922 35.0494C10.2492 35.0494 10.7492 35.5494 10.7492 36.1994V39.5994C10.7492 39.9994 11.0992 40.3494 11.4992 40.3494C11.8992 40.3494 12.2492 39.9994 12.2492 39.5994V36.1994C12.2492 34.7994 11.0492 33.5994 9.59922 33.5994ZM17.0992 34.3494H16.5492V33.2494C16.5492 32.8494 16.1992 32.4994 15.7992 32.4994C15.3992 32.4994 15.0492 32.8494 15.0492 33.2494V34.3494H14.4992C14.0992 34.3494 13.7492 34.6994 13.7492 35.0994C13.7492 35.4994 14.0992 35.8494 14.4992 35.8494H15.0492V39.5994C15.0492 39.9994 15.3992 40.3494 15.7992 40.3494C16.1992 40.3494 16.5492 39.9994 16.5492 39.5994V35.8494H17.0992C17.4992 35.8494 17.8492 35.4994 17.8492 35.0994C17.8492 34.6994 17.4992 34.3494 17.0992 34.3494ZM22.2492 34.3494H21.6992V33.2494C21.6992 32.8494 21.3492 32.4994 20.9492 32.4994C20.5492 32.4994 20.1992 32.8494 20.1992 33.2494V34.3494H19.6492C19.2492 34.3494 18.8992 34.6994 18.8992 35.0994C18.8992 35.4994 19.2492 35.8494 19.6492 35.8494H20.1992V39.5994C20.1992 39.9994 20.5492 40.3494 20.9492 40.3494C21.3492 40.3494 21.6992 39.9994 21.6992 39.5994V35.8494H22.2492C22.6492 35.8494 22.9992 35.4994 22.9992 35.0994C22.9992 34.6994 22.6492 34.3494 22.2492 34.3494ZM27.1492 33.5994C26.5992 33.5994 26.0992 33.7994 25.6992 34.0994C25.6492 33.6994 25.3492 33.3994 24.9492 33.3994C24.5492 33.3994 24.1992 33.7494 24.1992 34.1494V41.0994C24.1992 41.4994 24.5492 41.8494 24.9492 41.8494C25.3492 41.8494 25.6992 41.4994 25.6992 41.0994V39.4994C26.1492 39.7994 26.6492 39.9994 27.1492 39.9994C28.6492 39.9994 29.8992 38.5494 29.8992 36.7994C29.8992 34.9994 28.6492 33.5994 27.1492 33.5994ZM27.1492 38.4494C26.4992 38.4494 25.8992 37.6994 25.8992 36.7494C25.8992 35.8494 26.4492 35.0494 27.1492 35.0494C27.7992 35.0494 28.3992 35.7994 28.3992 36.7494C28.3992 37.6994 27.7992 38.4494 27.1492 38.4494ZM32.4992 34.5494C32.0992 34.5494 31.7492 34.8994 31.7492 35.2994C31.7492 35.6994 32.0992 36.0494 32.4992 36.0494C32.8992 36.0494 33.2492 35.6994 33.2492 35.2994C33.2492 34.8994 32.8992 34.5494 32.4992 34.5494ZM32.4992 38.2994C32.0992 38.2994 31.7492 38.6494 31.7492 39.0494C31.7492 39.4494 32.0992 39.7994 32.4992 39.7994C32.8992 39.7994 33.2492 39.4494 33.2492 39.0494C33.2492 38.6494 32.8992 38.2994 32.4992 38.2994ZM38.9992 31.7494C38.5992 31.5994 38.1492 31.7994 37.9992 32.1994L35.1992 39.3494C35.0492 39.7494 35.2492 40.1994 35.6492 40.3494C35.7492 40.3994 35.8492 40.3994 35.9492 40.3994C36.2492 40.3994 36.5492 40.1994 36.6492 39.8994L39.4492 32.7494C39.5992 32.3494 39.3992 31.8994 38.9992 31.7494ZM43.2992 31.7494C42.8992 31.5994 42.4492 31.7994 42.2992 32.1994L39.4992 39.3494C39.3492 39.7494 39.5492 40.1994 39.9492 40.3494C40.0492 40.3994 40.1492 40.3994 40.2492 40.3994C40.5492 40.3994 40.8492 40.1994 40.9492 39.8994L43.7492 32.7494C43.8492 32.3494 43.6492 31.8994 43.2992 31.7494Z" fill="black"/>
</svg>
