<svg width="12" height="14" viewBox="0 0 12 14" fill="none" xmlns="http://www.w3.org/2000/svg">
<path d="M11.3021 9.86592C10.867 9.4988 10.5173 9.04102 10.2776 8.52462C10.0379 8.00821 9.91391 7.44566 9.91438 6.87633V5.25C9.91438 3.19725 8.38955 1.498 6.41438 1.21333V0.583333C6.41438 0.428624 6.35292 0.280251 6.24353 0.170854C6.13413 0.0614582 5.98576 0 5.83105 0C5.67634 0 5.52797 0.0614582 5.41857 0.170854C5.30917 0.280251 5.24771 0.428624 5.24771 0.583333V1.21333C3.27196 1.498 1.74771 3.19725 1.74771 5.25V6.87633C1.74794 7.44682 1.62337 8.01044 1.38273 8.52769C1.14209 9.04493 0.791221 9.50328 0.354715 9.87058C0.196958 10.0066 0.0845167 10.1875 0.0324494 10.3892C-0.0196179 10.5909 -0.00882569 10.8036 0.0633808 10.999C0.135587 11.1943 0.265761 11.363 0.436469 11.4823C0.607176 11.6016 0.810269 11.666 1.01855 11.6667H10.6435C11.2065 11.6667 11.6644 11.2087 11.6644 10.6458C11.6644 10.3472 11.5343 10.0648 11.3021 9.86592ZM5.83105 14C6.33506 13.9993 6.82342 13.8249 7.21382 13.5061C7.60421 13.1873 7.87277 12.7437 7.97421 12.25H3.68788C3.78933 12.7437 4.05788 13.1873 4.44828 13.5061C4.83867 13.8249 5.32704 13.9993 5.83105 14Z" fill="#3A59A6"/>
</svg>
