<svg width="16" height="16" viewBox="0 0 16 16" fill="none" xmlns="http://www.w3.org/2000/svg">
<path d="M3.72754 1.83301C3.84398 1.83304 3.95603 1.8579 4.05078 1.90332V1.9043L4.05762 1.90723C4.15667 1.95294 4.23771 2.0174 4.30273 2.11133L4.30664 2.11523L5.85254 4.2959L5.85449 4.29883C5.95629 4.44022 6.0222 4.55888 6.06445 4.66211L6.06738 4.66992C6.10789 4.76444 6.12109 4.83705 6.12109 4.87988C6.12106 4.93913 6.10405 5.00997 6.05371 5.09277L6.0498 5.09961L6.04492 5.10742C5.98617 5.21121 5.89095 5.3356 5.75391 5.47266L5.74707 5.47949L5.24707 5.99902C5.07223 6.17386 4.99414 6.3922 4.99414 6.62012C4.99418 6.72063 5.00779 6.80849 5.0293 6.89453L5.03613 6.92188L5.0459 6.94824C5.06021 6.98642 5.07496 7.02005 5.08301 7.03906C5.09055 7.05689 5.09231 7.06324 5.09277 7.06445L5.10742 7.10645L5.12793 7.14551C5.27156 7.40883 5.50348 7.72589 5.80566 8.08301L5.80957 8.08691C6.11457 8.43935 6.44139 8.80076 6.79688 9.16309L6.80078 9.16699C6.83903 9.20523 6.87805 9.24296 6.91211 9.27539C6.9478 9.30938 6.97864 9.33803 7.00684 9.36621L7.01172 9.37109C7.08099 9.43874 7.08086 9.54491 7.01367 9.6123L5.78027 10.8457C5.71755 10.9084 5.61535 10.9151 5.54004 10.8447C5.50143 10.8063 5.46337 10.7704 5.42969 10.7383L5.32715 10.6396C4.65827 9.96411 4.05504 9.25675 3.51758 8.51855C3.05552 7.87587 2.67701 7.23877 2.38672 6.6123L2.26758 6.34375C1.97548 5.63368 1.83398 4.9735 1.83398 4.35938C1.83402 3.96546 1.90334 3.5957 2.03809 3.25879L2.03906 3.25586C2.17048 2.92188 2.38047 2.60921 2.68359 2.32324L2.69141 2.31641C3.0426 1.9707 3.38879 1.83301 3.72754 1.83301Z" fill="white" stroke="white"/>
<path d="M11.0938 9.86035C11.1471 9.86036 11.2167 9.87137 11.3115 9.91016C11.416 9.95295 11.5379 10.0197 11.6855 10.1201L13.8838 11.6816L13.8887 11.6846C13.9935 11.7571 14.0477 11.8261 14.0791 11.8936C14.1254 12.0113 14.1475 12.1129 14.1475 12.2207C14.1474 12.3478 14.1234 12.483 14.0762 12.6162C14.0562 12.6695 14.0459 12.6982 14.0332 12.7236L14.0283 12.7334C13.9348 12.9314 13.8147 13.1162 13.6562 13.291C13.3862 13.5885 13.0998 13.7948 12.7871 13.9307L12.7256 13.957C12.3923 14.0926 12.0294 14.167 11.6338 14.167C11.0329 14.167 10.3727 14.026 9.65625 13.7207C8.92911 13.4109 8.19637 12.9912 7.46484 12.459H7.46582C7.35838 12.3791 7.25315 12.3006 7.15039 12.2227L8.6416 10.7314C8.71144 10.7747 8.77727 10.8158 8.8418 10.8496L8.86426 10.8613L8.8877 10.8711C8.89109 10.8725 8.8986 10.876 8.91992 10.8857C8.93813 10.8941 8.96681 10.907 8.99707 10.9199L9.00781 10.9248L9.01855 10.9287C9.14479 10.976 9.26174 10.9873 9.36035 10.9873C9.6123 10.9873 9.82366 10.8902 9.98535 10.7295L10.4912 10.2295L10.4941 10.2275C10.6406 10.0811 10.7595 9.99138 10.8516 9.94336L10.8662 9.93555L10.8799 9.92773C10.9647 9.87612 11.0296 9.86035 11.0938 9.86035Z" fill="white" stroke="white"/>
</svg>
