<svg width="14" height="14" viewBox="0 0 14 14" fill="none" xmlns="http://www.w3.org/2000/svg">
<path d="M7 8.75C7.9665 8.75 8.75 7.9665 8.75 7C8.75 6.0335 7.9665 5.25 7 5.25C6.0335 5.25 5.25 6.0335 5.25 7C5.25 7.9665 6.0335 8.75 7 8.75Z" stroke="white" stroke-miterlimit="10" stroke-linecap="round" stroke-linejoin="round"/>
<path d="M1.16602 7.5135V6.48683C1.16602 5.88017 1.66185 5.3785 2.27435 5.3785C3.33018 5.3785 3.76185 4.63183 3.23102 3.716C2.92768 3.191 3.10852 2.5085 3.63935 2.20517L4.64852 1.62767C5.10935 1.3535 5.70435 1.51683 5.97852 1.97767L6.04268 2.0885C6.56768 3.00433 7.43102 3.00433 7.96185 2.0885L8.02602 1.97767C8.30018 1.51683 8.89518 1.3535 9.35602 1.62767L10.3652 2.20517C10.896 2.5085 11.0768 3.191 10.7735 3.716C10.2427 4.63183 10.6743 5.3785 11.7302 5.3785C12.3369 5.3785 12.8385 5.87433 12.8385 6.48683V7.5135C12.8385 8.12017 12.3427 8.62183 11.7302 8.62183C10.6743 8.62183 10.2427 9.3685 10.7735 10.2843C11.0768 10.8152 10.896 11.4918 10.3652 11.7952L9.35602 12.3727C8.89518 12.6468 8.30018 12.4835 8.02602 12.0227L7.96185 11.9118C7.43685 10.996 6.57352 10.996 6.04268 11.9118L5.97852 12.0227C5.70435 12.4835 5.10935 12.6468 4.64852 12.3727L3.63935 11.7952C3.10852 11.4918 2.92768 10.8093 3.23102 10.2843C3.76185 9.3685 3.33018 8.62183 2.27435 8.62183C1.66185 8.62183 1.16602 8.12017 1.16602 7.5135Z" stroke="white" stroke-miterlimit="10" stroke-linecap="round" stroke-linejoin="round"/>
</svg>
