<svg width="153" height="245" viewBox="0 0 153 245" fill="none" xmlns="http://www.w3.org/2000/svg">
<path d="M30.6483 65.1698C37.8722 65.1698 43.7283 59.3136 43.7283 52.0898C43.7283 44.8659 37.8722 39.0098 30.6483 39.0098C23.4245 39.0098 17.5684 44.8659 17.5684 52.0898C17.5684 59.3136 23.4245 65.1698 30.6483 65.1698Z" fill="#602A7F"/>
<path d="M122.4 48.5601C131.22 48.5601 138.37 41.4101 138.37 32.5901C138.37 23.7701 131.22 16.6201 122.4 16.6201C113.58 16.6201 106.43 23.7701 106.43 32.5901C106.43 41.4101 113.58 48.5601 122.4 48.5601Z" fill="#FBAD1B"/>
<path d="M39.69 69.3101C41.09 69.3101 42.44 69.4501 43.76 69.7001V104.19H0V90.7601C0 78.9201 9.60998 69.3201 21.45 69.3201H39.69V69.3101Z" fill="#602A7F"/>
<path d="M152.969 75.2801V104.18H109.789V59.7701C109.789 57.8601 109.569 56.0101 109.129 54.2401C110.469 53.9701 111.849 53.8301 113.269 53.8301H131.519C143.359 53.8301 152.969 63.4401 152.969 75.2801Z" fill="#FBAD1B"/>
<path d="M93.8592 17.08C93.8592 26.5 86.1992 34.17 76.7792 34.17C67.3592 34.17 59.6992 26.5 59.6992 17.08C59.6992 7.66002 67.3592 0 76.7792 0C86.1992 0 93.8592 7.67002 93.8592 17.08Z" fill="#EA6C35"/>
<path d="M105.909 59.7602V104.04H47.6387V59.7602C47.6387 48.8202 56.5487 39.9102 67.4987 39.9102H86.0387C95.4687 39.9102 103.389 46.5102 105.399 55.3202C105.739 56.7402 105.909 58.2402 105.909 59.7602Z" fill="#EA6C35"/>
<path d="M63.3105 214.24C63.4805 214.18 63.6505 214.13 63.8005 214.09C63.6305 214.15 63.4805 214.2 63.3105 214.26V214.24Z" fill="#1C4692"/>
<path d="M151.05 184.08C151.15 186.71 150.19 189.35 148.21 191.33C146.33 193.2 143.86 194.22 141.23 194.22C138.6 194.22 136.13 193.2 134.27 191.33L123.97 181.04L108.07 165.17C107.34 164.44 106.16 164.44 105.43 165.17C104.7 165.9 104.7 167.07 105.43 167.81L117.99 180.37L131.7 194.06C135.55 197.9 135.55 204.15 131.68 208.01C129.83 209.86 127.38 210.87 124.74 210.87C122.1 210.87 119.63 209.86 117.8 207.98L91.51 181.73C91.32 181.57 91.01 181.37 90.76 181.28C89.93 180.97 88.99 181.25 88.5 181.99C88 182.72 88.11 183.71 88.73 184.36L114.98 210.61C116.86 212.44 117.87 214.93 117.87 217.56C117.87 220.19 116.86 222.65 114.98 224.52C113.15 226.39 110.68 227.39 108.04 227.39C105.4 227.39 102.91 226.38 101.08 224.52L74.83 198.27C74.1 197.54 72.9 197.56 72.17 198.29C71.41 199.02 71.41 200.2 72.17 200.93L98.41 227.18C100.29 229.06 101.31 231.55 101.31 234.16C101.31 236.77 100.29 239.26 98.41 241.12C96.56 242.99 94.08 244.01 91.43 244.01C88.78 244.01 86.32 242.99 84.49 241.12L77.74 234.37C78.15 233.88 78.54 233.38 78.88 232.83C79.06 232.59 79.2 232.34 79.33 232.08C79.44 231.89 79.54 231.72 79.61 231.55C79.69 231.44 79.74 231.32 79.79 231.21C79.94 230.89 80.08 230.55 80.2 230.2C80.33 229.86 80.44 229.5 80.56 229.14C80.58 229.03 80.62 228.93 80.64 228.83C80.7 228.51 80.79 228.2 80.83 227.87C80.91 227.51 80.94 227.14 80.99 226.77C81.04 226.32 81.05 225.88 81.05 225.41C81.05 221.71 79.62 218.27 77.03 215.69C74.06 212.72 70.02 211.36 66.06 211.72C65.74 211.77 65.43 211.8 65.1 211.85C64.74 211.91 64.39 211.96 64.05 212.06C64.15 211.69 64.23 211.31 64.28 210.92C64.33 210.66 64.36 210.39 64.39 210.13C64.44 209.68 64.45 209.24 64.45 208.78C64.45 205.13 63.02 201.67 60.39 199.08C57.08 195.74 52.33 194.46 47.94 195.35C47.79 195.37 47.62 195.4 47.47 195.43V195.41C47.47 195.41 47.49 195.33 47.5 195.26C47.56 194.98 47.61 194.69 47.68 194.4C47.79 193.69 47.84 192.96 47.84 192.21C47.84 188.54 46.41 185.1 43.83 182.49C41.19 179.83 37.65 178.47 34.06 178.48C33.75 178.48 33.44 178.5 33.12 178.51L32.2 178.61C31.96 178.63 31.68 178.69 31.44 178.74C31.36 178.76 31.26 178.79 31.16 178.8V178.78H31.18V178.73C31.2 178.62 31.23 178.54 31.24 178.42C31.27 178.21 31.3 178.01 31.35 177.82V177.74C31.38 177.45 31.41 177.12 31.43 176.8C31.46 176.49 31.48 176.17 31.48 175.83C31.48 172.15 30.05 168.69 27.44 166.13C26.43 165.11 25.31 164.26 24.06 163.65C22.91 163.03 21.67 162.61 20.36 162.37C19.92 162.27 19.5 162.19 19.05 162.18C18.61 162.13 18.16 162.1 17.74 162.1C17.32 162.1 16.86 162.13 16.43 162.18C15.98 162.2 15.55 162.28 15.12 162.37C13.81 162.61 12.57 163.04 11.4 163.65C10.17 164.27 9.04999 165.11 8.01999 166.13L0.279999 173.87C0.199999 173.97 0.1 174.05 0 174.15V107.7H51.7L24.6 134.78C18.56 140.85 18.56 150.71 24.62 156.78C27.54 159.73 31.47 161.36 35.62 161.36C39.77 161.36 43.68 159.74 46.62 156.78L80.29 123.13C84.05 119.35 90.19 119.35 93.95 123.13L148.21 177.37C150.04 179.2 151 181.62 151.05 184.06V184.08Z" fill="#1C4692"/>
<path d="M31.1696 178.8H31.1496V178.82C31.2496 178.8 31.3396 178.77 31.4296 178.76C31.3496 178.76 31.2696 178.78 31.1696 178.81V178.8ZM26.3496 180.88H26.3696C26.3696 180.88 26.4196 180.78 26.4496 180.73C26.4196 180.78 26.3896 180.83 26.3496 180.88ZM63.2996 214.24V214.26C63.4796 214.21 63.6196 214.15 63.7896 214.1C63.6396 214.13 63.4796 214.2 63.2996 214.25V214.24ZM31.1696 178.8H31.1496V178.82C31.2496 178.8 31.3396 178.77 31.4296 178.76C31.3496 178.76 31.2696 178.78 31.1696 178.81V178.8Z" fill="white"/>
<path d="M152.969 107.71V177.52C152.409 176.53 151.699 175.59 150.849 174.75L96.5989 120.5C91.3689 115.27 82.8789 115.27 77.6489 120.5L43.9789 154.17C41.7489 156.4 38.7689 157.64 35.6189 157.64C32.4689 157.64 29.4889 156.4 27.2589 154.17C22.6689 149.56 22.6689 142.06 27.2589 137.45L57.0089 107.72H152.969V107.71Z" fill="#199D48"/>
<path d="M60.6985 208.9C60.6785 211.06 59.9685 213.09 58.6785 214.79C58.6585 214.81 58.6585 214.83 58.6385 214.83C58.2585 215.13 57.8885 215.44 57.5385 215.8L49.7285 223.5C49.3285 223.89 48.9885 224.28 48.7485 224.58C44.7885 227.51 39.2385 227.09 35.7485 223.53C32.3085 220.03 31.9085 214.71 34.7885 210.7C34.8285 210.63 34.8685 210.57 34.9185 210.49C35.1485 210.14 35.4885 209.74 35.8685 209.37L43.6785 201.69C44.0585 201.32 44.4485 200.98 44.8685 200.71C44.9485 200.65 44.9985 200.62 45.0785 200.58C48.9985 197.88 54.4285 198.39 57.8185 201.81C59.6985 203.74 60.7285 206.24 60.6985 208.9Z" fill="#199D48"/>
<path d="M58.638 214.83C58.638 214.83 58.578 214.92 58.548 214.96C58.528 214.98 58.5081 215.02 58.5081 215.03C58.2481 215.33 57.978 215.64 57.698 215.94L49.888 223.64C49.628 223.9 49.318 224.16 48.958 224.42C48.878 224.48 48.828 224.53 48.748 224.57C48.998 224.27 49.338 223.88 49.728 223.49L57.5381 215.79C57.8781 215.44 58.258 215.12 58.638 214.82V214.83Z" fill="#199D48"/>
<path d="M47.5879 195.43V195.45C47.7379 195.41 47.9079 195.38 48.0579 195.36C47.8879 195.38 47.7379 195.41 47.5879 195.43Z" fill="#199D48"/>
<path d="M77.7182 225.83C77.7182 227.99 77.0282 230.03 75.7482 231.73C75.7282 231.75 75.7282 231.77 75.7082 231.77C75.3382 232.07 74.9582 232.39 74.6182 232.74L66.8782 240.5C66.4882 240.89 66.1482 241.29 65.9082 241.59C61.9682 244.55 56.4182 244.18 52.8982 240.65C49.4282 237.18 48.9782 231.86 51.8282 227.83C51.8682 227.75 51.9082 227.7 51.9582 227.62C52.1782 227.26 52.5182 226.87 52.8982 226.5L60.6382 218.76C61.0082 218.39 61.4082 218.05 61.8182 217.77C61.8882 217.71 61.9482 217.68 62.0282 217.64C65.9282 214.9 71.3682 215.37 74.7782 218.76C76.6682 220.67 77.7182 223.17 77.7182 225.83Z" fill="#199D48"/>
<path d="M75.7084 231.77C75.7084 231.77 75.6484 231.86 75.6184 231.9C75.5984 231.92 75.5784 231.96 75.5784 231.97C75.3184 232.27 75.0584 232.59 74.7684 232.89L67.0284 240.65C66.7684 240.91 66.4684 241.17 66.1084 241.44C66.0384 241.5 65.9784 241.55 65.8984 241.59C66.1384 241.29 66.4784 240.9 66.8684 240.5L74.6084 232.74C74.9484 232.38 75.3184 232.07 75.6984 231.77H75.7084Z" fill="#199D48"/>
<path d="M64.498 212.46V212.48C64.648 212.44 64.818 212.4 64.968 212.39C64.798 212.41 64.648 212.45 64.498 212.46Z" fill="#199D48"/>
<path d="M29.9401 183.14C29.6401 183.29 29.3601 183.44 29.0801 183.61V183.59C29.3601 183.42 29.6401 183.27 29.9401 183.14Z" fill="#199D48"/>
<path d="M44.0891 192.22C44.0891 194.26 43.4891 196.21 42.2891 197.92C42.2891 197.94 42.2691 197.94 42.2691 197.94C42.2291 198.01 42.1791 198.09 42.1191 198.16C41.8791 198.52 41.5591 198.91 41.1591 199.28L33.3991 207.02C33.0391 207.39 32.6491 207.71 32.2591 208.01C32.1891 208.07 32.1091 208.12 32.0391 208.16C28.1191 210.88 22.6891 210.43 19.2691 207.02C16.0991 203.85 15.4591 198.87 17.6991 194.99C17.7591 194.88 17.8291 194.75 17.9091 194.63C18.2991 194.01 18.7491 193.43 19.2791 192.89L27.0391 185.15C27.5491 184.64 28.1291 184.19 28.7791 183.78C28.8691 183.72 28.9691 183.65 29.0791 183.61C29.3591 183.44 29.6391 183.29 29.9391 183.14C30.2391 183.01 30.5391 182.9 30.8391 182.78C31.4591 182.56 32.0791 182.41 32.7091 182.31C33.1791 182.25 33.6291 182.22 34.0991 182.22C34.7591 182.22 35.3891 182.28 36.0291 182.41C36.3491 182.47 36.6491 182.56 36.9691 182.63C37.2691 182.72 37.5891 182.84 37.8891 182.95C38.7891 183.32 39.6491 183.83 40.4191 184.47C40.6791 184.68 40.9291 184.9 41.1691 185.14C43.0591 187.03 44.0891 189.55 44.0891 192.21V192.22Z" fill="#199D48"/>
<path d="M29.0801 183.59V183.61C29.3601 183.44 29.6401 183.29 29.9401 183.14C29.6401 183.27 29.3601 183.42 29.0801 183.59ZM29.0801 183.59V183.61C29.3601 183.44 29.6401 183.29 29.9401 183.14C29.6401 183.27 29.3601 183.42 29.0801 183.59ZM29.0801 183.59V183.61C29.3601 183.44 29.6401 183.29 29.9401 183.14C29.6401 183.27 29.3601 183.42 29.0801 183.59ZM29.0801 183.59V183.61C29.3601 183.44 29.6401 183.29 29.9401 183.14C29.6401 183.27 29.3601 183.42 29.0801 183.59ZM29.0801 183.59V183.61C29.3601 183.44 29.6401 183.29 29.9401 183.14C29.6401 183.27 29.3601 183.42 29.0801 183.59Z" fill="#199D48"/>
<path d="M27.7297 175.85C27.7297 177.54 27.3198 179.15 26.5298 180.61C26.4698 180.69 26.4197 180.78 26.3597 180.87C26.2997 180.98 26.2497 181.08 26.1697 181.19C26.1697 181.21 26.1497 181.21 26.1497 181.23C25.8097 181.79 25.3397 182.37 24.7997 182.92L17.0598 190.68C16.4998 191.24 15.9198 191.71 15.3198 192.09C15.2098 192.17 15.0997 192.22 14.9797 192.3C11.0997 194.51 6.08975 193.86 2.92975 190.69C1.05975 188.8 0.00976562 186.28 0.00976562 183.6V183.38C0.0697656 180.81 1.11975 178.37 2.92975 176.54L10.6697 168.8C11.1597 168.31 11.6597 167.9 12.2097 167.54C12.7497 167.17 13.3197 166.87 13.9197 166.64C14.1997 166.51 14.4997 166.4 14.7997 166.32C14.8897 166.28 14.9898 166.26 15.0998 166.23C15.3198 166.16 15.5697 166.1 15.8297 166.06C15.9197 166.04 16.0198 166.02 16.1298 166C16.6498 165.91 17.1798 165.87 17.7198 165.87C17.7398 165.87 17.7598 165.89 17.7798 165.87C18.0998 165.87 18.4197 165.89 18.7397 165.93C19.0397 165.97 19.3397 166 19.6397 166.06C19.9597 166.12 20.2797 166.19 20.5797 166.28C21.1997 166.47 21.8197 166.71 22.3997 167.03C22.6798 167.18 22.9797 167.35 23.2397 167.54C23.4597 167.69 23.6898 167.84 23.9098 168.03C24.2098 168.25 24.5298 168.54 24.8098 168.82C26.6998 170.68 27.7297 173.19 27.7297 175.87V175.85Z" fill="#199D48"/>
</svg>
