<svg width="16" height="16" viewBox="0 0 16 16" fill="none" xmlns="http://www.w3.org/2000/svg">
<path d="M4.66699 2.83301H11.334C12.2573 2.83301 12.9501 3.0641 13.4102 3.49121C13.8634 3.91209 14.1669 4.59484 14.167 5.66602V10.333C14.167 11.4043 13.8634 12.0869 13.4102 12.5078C12.9501 12.935 12.2573 13.166 11.334 13.166H4.66699C3.7438 13.166 3.05078 12.9349 2.59082 12.5078C2.13766 12.0869 1.83398 11.4042 1.83398 10.333V5.66602C1.83405 4.59491 2.13762 3.9121 2.59082 3.49121C3.05078 3.06411 3.7438 2.83306 4.66699 2.83301ZM12.1074 5.37109C11.7629 4.93254 11.1303 4.87653 10.709 5.21582L8.62207 6.88281H8.62109C8.47243 7.00213 8.24716 7.07812 7.99707 7.07812C7.74714 7.07808 7.52264 7.00204 7.37402 6.88281H7.37305L5.28613 5.21582H5.28516C4.84695 4.86314 4.2234 4.95552 3.88574 5.37109L3.87988 5.37891C3.54731 5.80492 3.61245 6.43463 4.03906 6.78125L4.04199 6.7832L6.125 8.44629V8.44727C6.66027 8.88361 7.34352 9.08594 8.00098 9.08594C8.66036 9.08587 9.3341 8.88268 9.87305 8.4502L11.958 6.7832L11.959 6.78418L11.9629 6.78125C12.3858 6.43753 12.4541 5.81248 12.1182 5.38477H12.1191C12.1172 5.38223 12.1152 5.37946 12.1133 5.37695C12.1117 5.37501 12.11 5.37303 12.1084 5.37109H12.1074Z" fill="black" stroke="black"/>
</svg>
