<svg width="14" height="14" viewBox="0 0 14 14" fill="none" xmlns="http://www.w3.org/2000/svg">
<path d="M6.99954 1.0127C3.69296 1.0127 1.0127 3.69296 1.0127 6.99954C1.0127 8.25217 1.41796 9.48638 2.14559 10.4995L1.39954 12.7285L3.70217 11.9916C6.45612 13.8153 10.1772 13.0509 11.9916 10.2877C13.8061 7.52454 13.0509 3.8127 10.2877 1.99822C9.32059 1.3627 8.16927 1.0127 6.99954 1.0127ZM10.1864 9.48638L9.54164 10.1127C8.86927 10.7851 7.09164 10.0574 5.51664 8.46401C3.94164 6.87059 3.24164 5.11138 3.87717 4.45743L4.52191 3.8127C4.7798 3.57322 5.16664 3.57322 5.43375 3.8127L6.37322 4.75217C6.63112 4.99164 6.63112 5.37849 6.39164 5.63638C6.31796 5.71006 6.24427 5.75612 6.13375 5.78375C5.82059 5.88506 5.63638 6.19822 5.72849 6.52059C5.89427 7.22059 6.80612 8.09559 7.47849 8.27059C7.79164 8.32585 8.1048 8.16927 8.21533 7.86533C8.31664 7.53375 8.67585 7.35875 9.00743 7.46006C9.10875 7.4877 9.18243 7.55217 9.26533 7.62585L10.2048 8.56533C10.4074 8.82322 10.4074 9.22849 10.1864 9.48638Z" fill="url(#paint0_linear_795_7066)"/>
<defs>
<linearGradient id="paint0_linear_795_7066" x1="2.05358" y1="3.48084" x2="10.5195" y2="11.9469" gradientUnits="userSpaceOnUse">
<stop stop-color="#66BB6A"/>
<stop offset="1" stop-color="#2E7D32"/>
</linearGradient>
</defs>
</svg>
