<svg width="25" height="25" viewBox="0 0 25 25" fill="none" xmlns="http://www.w3.org/2000/svg">
<path d="M11.7188 7.5C11.7188 8.08716 11.5447 8.66114 11.2185 9.14935C10.8923 9.63756 10.4286 10.0181 9.88618 10.2428C9.34371 10.4675 8.74679 10.5263 8.17091 10.4117C7.59503 10.2972 7.06605 10.0144 6.65086 9.59922C6.23568 9.18404 5.95293 8.65506 5.83838 8.07917C5.72383 7.50329 5.78262 6.90638 6.00732 6.36391C6.23202 5.82144 6.61253 5.35778 7.10074 5.03157C7.58894 4.70536 8.16292 4.53125 8.75009 4.53125C9.53724 4.53191 10.292 4.8449 10.8486 5.40151C11.4052 5.95811 11.7182 6.71284 11.7188 7.5ZM25.0001 7.2625V17.7375C25.0001 22.2875 22.2876 25 17.7376 25H7.26259C4.07509 25 1.77509 23.6625 0.700085 21.2875C0.540922 20.93 0.411322 20.56 0.312585 20.1813L0.273835 20.0288C0.0887439 19.2792 -0.00320008 18.5096 8.50039e-05 17.7375V7.2625C8.50039e-05 2.7125 2.71259 0 7.26259 0H17.7376C22.2876 0 25.0001 2.7125 25.0001 7.2625ZM23.1251 7.2625C23.1251 3.7375 21.2626 1.875 17.7376 1.875H7.26259C3.73759 1.875 1.87509 3.7375 1.87509 7.2625V17.7375C1.86482 18.5785 2.01149 19.414 2.30759 20.2012L6.98759 17.0625C7.48379 16.7342 8.07233 16.574 8.66646 16.6055C9.26059 16.637 9.82889 16.8586 10.2876 17.2375L10.7126 17.5875C11.2101 17.9938 11.8327 18.2158 12.4751 18.2158C13.1174 18.2158 13.7401 17.9938 14.2376 17.5875L19.4376 13.125C19.9351 12.7187 20.5577 12.4967 21.2001 12.4967C21.8424 12.4967 22.4651 12.7187 22.9626 13.125L23.1251 13.265V7.2625Z" fill="#1849D6"/>
</svg>
