<svg width="18" height="18" viewBox="0 0 18 18" fill="none" xmlns="http://www.w3.org/2000/svg">
<path d="M13.4996 5.37C13.4546 5.3625 13.4021 5.3625 13.3571 5.37C12.3221 5.3325 11.4971 4.485 11.4971 3.435C11.4971 2.3625 12.3596 1.5 13.4321 1.5C14.5046 1.5 15.3671 2.37 15.3671 3.435C15.3596 4.485 14.5346 5.3325 13.4996 5.37Z" stroke="#292D32" stroke-linecap="round" stroke-linejoin="round"/>
<path d="M12.7266 10.8301C13.7541 11.0026 14.8866 10.8226 15.6816 10.2901C16.7391 9.58512 16.7391 8.43012 15.6816 7.72512C14.8791 7.19262 13.7316 7.01262 12.7041 7.19262" stroke="#292D32" stroke-linecap="round" stroke-linejoin="round"/>
<path d="M4.47785 5.37C4.52285 5.3625 4.57535 5.3625 4.62035 5.37C5.65535 5.3325 6.48035 4.485 6.48035 3.435C6.48035 2.3625 5.61785 1.5 4.54535 1.5C3.47285 1.5 2.61035 2.37 2.61035 3.435C2.61785 4.485 3.44285 5.3325 4.47785 5.37Z" stroke="#292D32" stroke-linecap="round" stroke-linejoin="round"/>
<path d="M5.25008 10.8301C4.22258 11.0026 3.09008 10.8226 2.29508 10.2901C1.23758 9.58512 1.23758 8.43012 2.29508 7.72512C3.09758 7.19262 4.24508 7.01262 5.27258 7.19262" stroke="#292D32" stroke-linecap="round" stroke-linejoin="round"/>
<path d="M8.99957 10.9725C8.95457 10.965 8.90207 10.965 8.85707 10.9725C7.82207 10.935 6.99707 10.0875 6.99707 9.03754C6.99707 7.96504 7.85957 7.10254 8.93207 7.10254C10.0046 7.10254 10.8671 7.97254 10.8671 9.03754C10.8596 10.0875 10.0346 10.9425 8.99957 10.9725Z" stroke="#292D32" stroke-linecap="round" stroke-linejoin="round"/>
<path d="M6.81754 13.3355C5.76004 14.0405 5.76004 15.1955 6.81754 15.9005C8.01754 16.703 9.98254 16.703 11.1825 15.9005C12.24 15.1955 12.24 14.0405 11.1825 13.3355C9.99004 12.5405 8.01754 12.5405 6.81754 13.3355Z" stroke="#292D32" stroke-linecap="round" stroke-linejoin="round"/>
</svg>
